<svg id="Layer_1" data-name="Layer 1" xmlns="http://www.w3.org/2000/svg" width="600px" height="175px" style="overflow:hidden!important;" viewBox="0 0 750.01 222"><defs><style>.cls-1{fill:#0277bd;}</style></defs><title>Artboard 1</title><path class="cls-1" d="M270.08,74.5A41.33,41.33,0,0,1,266,87.8a32.64,32.64,0,0,1-8.69,10.62,41,41,0,0,1-13.54,7A62,62,0,0,1,225.06,108,52.23,52.23,0,0,1,206,104.64a41.41,41.41,0,0,1-14.64-9.48A42.17,42.17,0,0,1,182,80.41a53.34,53.34,0,0,1-3.3-19.24V51A53,53,0,0,1,182,31.76,41.71,41.71,0,0,1,191.54,17a42.55,42.55,0,0,1,15-9.51,55.49,55.49,0,0,1,19.86-3.37,57.89,57.89,0,0,1,17.78,2.5,39.47,39.47,0,0,1,13.17,7A33.58,33.58,0,0,1,266,24.26,40.39,40.39,0,0,1,270.08,38H254.34a40,40,0,0,0-2.77-9.51,21.16,21.16,0,0,0-5.18-7.22,22.41,22.41,0,0,0-8.2-4.58,38.08,38.08,0,0,0-11.74-1.6,34.64,34.64,0,0,0-13.91,2.6,27.47,27.47,0,0,0-10,7.29,31.09,31.09,0,0,0-6.08,11.32,49.57,49.57,0,0,0-2,14.62V61.17a51.36,51.36,0,0,0,1.83,14,33.43,33.43,0,0,0,5.59,11.42,26.27,26.27,0,0,0,9.54,7.71,31.06,31.06,0,0,0,13.7,2.81,44.91,44.91,0,0,0,12.64-1.53,23.11,23.11,0,0,0,8.52-4.41,19.74,19.74,0,0,0,5.26-7.08,41.87,41.87,0,0,0,2.85-9.55Z"/><path class="cls-1" d="M358.57,59.85H307.11V95.68h59.78v10.9H291.45V5.48h74.63v11h-59V49h51.46Z"/><path class="cls-1" d="M429.93,65.69H402v40.9H386.3V5.48h39.31q20.06,0,30.87,7.78T467.28,35.9a24.54,24.54,0,0,1-6,16.46q-6,7-16.68,10.49l27.89,42.91v.83H455.7ZM402,54.78H426.1a37.35,37.35,0,0,0,11.13-1.49,24.22,24.22,0,0,0,8-4,16.39,16.39,0,0,0,4.77-6,17.39,17.39,0,0,0,1.59-7.4,20.27,20.27,0,0,0-1.51-8,15.66,15.66,0,0,0-4.69-6.15,22.48,22.48,0,0,0-8.07-4,43.09,43.09,0,0,0-11.66-1.39H402Z"/><path class="cls-1" d="M564.75,16.45H526.58v90.13H511V16.45H472.91v-11h91.83Z"/><path class="cls-1" d="M91.12,188.27A41.33,41.33,0,0,1,87,201.57a32.64,32.64,0,0,1-8.69,10.62,41,41,0,0,1-13.54,7,62,62,0,0,1-18.68,2.53A52.23,52.23,0,0,1,27,218.41a41.41,41.41,0,0,1-14.64-9.48A42.17,42.17,0,0,1,3,194.18a53.34,53.34,0,0,1-3.3-19.24V164.8A53,53,0,0,1,3,145.53a41.71,41.71,0,0,1,9.54-14.79,42.55,42.55,0,0,1,15-9.51,55.49,55.49,0,0,1,19.86-3.37,57.89,57.89,0,0,1,17.78,2.5,39.47,39.47,0,0,1,13.17,7A33.58,33.58,0,0,1,87,138a40.39,40.39,0,0,1,4.08,13.71H75.38a40,40,0,0,0-2.77-9.51A21.16,21.16,0,0,0,67.43,135a22.41,22.41,0,0,0-8.2-4.58,38.08,38.08,0,0,0-11.74-1.6,34.64,34.64,0,0,0-13.91,2.6,27.47,27.47,0,0,0-10,7.29A31.09,31.09,0,0,0,17.47,150a49.57,49.57,0,0,0-2,14.62v10.28a51.36,51.36,0,0,0,1.83,14,33.43,33.43,0,0,0,5.59,11.42A26.27,26.27,0,0,0,32.4,208a31.06,31.06,0,0,0,13.7,2.81,44.91,44.91,0,0,0,12.64-1.53,23.11,23.11,0,0,0,8.52-4.41,19.74,19.74,0,0,0,5.26-7.08,41.87,41.87,0,0,0,2.85-9.55Z"/><path class="cls-1" d="M318.58,220.36H302.84l-59.78-77.91v77.91H227.32V119.25h15.74L303,197.51V119.25h15.58Z"/><path class="cls-1" d="M437.66,220.36H421.92l-59.78-77.91v77.91H346.39V119.25h15.74l59.94,78.26V119.25h15.58Z"/><path class="cls-1" d="M532.59,173.62H481.13v35.83h59.78v10.9H465.47V119.25h74.62v11h-59v32.5h51.46Z"/><path class="cls-1" d="M647.75,188.27a41.33,41.33,0,0,1-4.12,13.3,32.64,32.64,0,0,1-8.69,10.62,41,41,0,0,1-13.54,7,62,62,0,0,1-18.68,2.53,52.23,52.23,0,0,1-19.08-3.33A41.41,41.41,0,0,1,569,208.93a42.17,42.17,0,0,1-9.38-14.76,53.34,53.34,0,0,1-3.3-19.24V164.8a53,53,0,0,1,3.34-19.27,41.71,41.71,0,0,1,9.54-14.79,42.55,42.55,0,0,1,15-9.51,55.49,55.49,0,0,1,19.86-3.37,57.89,57.89,0,0,1,17.78,2.5,39.47,39.47,0,0,1,13.17,7,33.58,33.58,0,0,1,8.6,10.69,40.39,40.39,0,0,1,4.08,13.71H632a40,40,0,0,0-2.77-9.51,21.16,21.16,0,0,0-5.18-7.22,22.41,22.41,0,0,0-8.2-4.58,38.08,38.08,0,0,0-11.74-1.6,34.64,34.64,0,0,0-13.91,2.6,27.47,27.47,0,0,0-10,7.29A31.09,31.09,0,0,0,574.1,150a49.57,49.57,0,0,0-2,14.62v10.28a51.36,51.36,0,0,0,1.83,14,33.43,33.43,0,0,0,5.59,11.42A26.27,26.27,0,0,0,589,208a31.06,31.06,0,0,0,13.7,2.81,44.91,44.91,0,0,0,12.64-1.53,23.11,23.11,0,0,0,8.52-4.41,19.74,19.74,0,0,0,5.26-7.08,41.87,41.87,0,0,0,2.85-9.55Z"/><path class="cls-1" d="M748.8,130.22H710.63v90.13H695.05V130.22H657v-11H748.8Z"/><path class="cls-1" d="M156.83,117.19A52.58,52.58,0,1,0,209.22,170,52.62,52.62,0,0,0,156.83,117.19Zm30.44,84.28-3.36,3c-.91.69-2,1.49-3.14,2.24a29.54,29.54,0,0,1-4.07,2.36,43.38,43.38,0,0,1-20.1,4.91h-.11a42.8,42.8,0,0,1-20.33-5.13l-4-2.38a30.29,30.29,0,0,1-2.83-2.07l0,0-.36-.25-3-2.78-.2-.2a43.57,43.57,0,0,1-13-31.24,41.13,41.13,0,0,1,.71-7.4,33.65,33.65,0,0,1,1-4.54c.27-.94.64-1.95,1-2.89l.2-.54a28,28,0,0,1,2-4.4,43.63,43.63,0,0,1,32.73-23.5,31.16,31.16,0,0,1,4.49-.38,13.31,13.31,0,0,1,1.53-.07l.47,0a14.23,14.23,0,0,1,2,.11,38.32,38.32,0,0,1,4.43.4,44,44,0,0,1,32.66,23.82,35.28,35.28,0,0,1,1.85,4.31,22.23,22.23,0,0,1,1.15,3.53,28.19,28.19,0,0,1,1,4.6,44.73,44.73,0,0,1,.62,7.29A43.49,43.49,0,0,1,187.27,201.48Z"/><path class="cls-1" d="M198.12,162.84a26.08,26.08,0,0,0-1-4.36A20.42,20.42,0,0,0,196,155.1a37.14,37.14,0,0,0-1.76-4.09A42.23,42.23,0,0,0,163,128.17a40.77,40.77,0,0,0-4.42-.4,14,14,0,0,0-1.76-.09,15.19,15.19,0,0,0-1.87.09,31.82,31.82,0,0,0-4.38.36,41.94,41.94,0,0,0-31.4,22.61,26.71,26.71,0,0,0-1.87,4.09c-.38,1.09-.8,2.23-1.13,3.36a33.7,33.7,0,0,0-1,4.34,39.7,39.7,0,0,0-.67,7.07A41.91,41.91,0,0,0,127,199.55l.15.15,3,2.78.13.05a27.25,27.25,0,0,0,2.82,2.07l3.89,2.34a41.7,41.7,0,0,0,38.91.18,28.39,28.39,0,0,0,3.87-2.25c1-.65,2-1.36,2.91-2.07l3.31-3a41.91,41.91,0,0,0,12.72-29.91A43.55,43.55,0,0,0,198.12,162.84Zm-5.31-6.4a24.84,24.84,0,0,1,1,3.05.11.11,0,0,0,0,.07l-23.61,7.56a13.31,13.31,0,0,0-1.11-3.36l23.61-7.6A1.6,1.6,0,0,0,192.81,156.45Zm-1.89-4.38-26.17,6.47L163,131.75A38.71,38.71,0,0,1,190.92,152.07Zm-23,14.56a2,2,0,1,1-2-2A2,2,0,0,1,167.95,166.62Zm-3.53,10.9a2,2,0,1,1-2-2A2,2,0,0,1,164.42,177.53ZM155,131.26a1,1,0,0,1,.36-.06,2.85,2.85,0,0,0,1.14-.2H157a2.79,2.79,0,0,1,1.44,1H159v24c-1.14-.09-1.75-.13-2.37-.13A8.28,8.28,0,0,0,155,156Zm1.63,26.53a2,2,0,1,1-2,2A2,2,0,0,1,156.63,157.79Zm0,6.4a5.59,5.59,0,1,1-5.58,5.6A5.6,5.6,0,0,1,156.63,164.19Zm-5.74,11.32a2,2,0,1,1-2,2A2,2,0,0,1,150.88,175.51Zm-3.49-6.89a2,2,0,1,1,2-2A2,2,0,0,1,147.4,168.62Zm3.55-37.43L149,158v0h0l-26.08-6.65A38.63,38.63,0,0,1,150.94,131.2Zm-31.39,27.94a32.19,32.19,0,0,1,1-3.09s0-.11.07-.15l23.57,7.78a13.57,13.57,0,0,0-1.18,3.38l-23.53-7.78A1.44,1.44,0,0,0,119.56,159.14ZM129,196.68a38.27,38.27,0,0,1-11-27.08,41.59,41.59,0,0,1,.53-6l.25.09,24.57,10.09Zm6.14,5.12-.11-.11a20.51,20.51,0,0,1-2.54-1.85l-.16-.13,14.61-20a12.4,12.4,0,0,0,2.89,2.14Zm21.32,6.56a37.88,37.88,0,0,1-17.41-4.27l17.35-20.46,17.41,20.63A37.73,37.73,0,0,1,156.5,208.37ZM180.58,200c-.89.65-1.73,1.33-2.74,2,0,0,0,0-.05.07L163.24,182a13.58,13.58,0,0,0,2.93-2.14l14.47,20.13A.19.19,0,0,1,180.58,200Zm3.36-3.07-14.07-23.1,24.86-10a33.47,33.47,0,0,1,.45,6A38,38,0,0,1,183.94,197Z"/><path class="cls-1" d="M712,44.94A110.48,110.48,0,0,1,741.73,99l8-.06A118.31,118.31,0,0,0,658,7.19l-.06,8A110.48,110.48,0,0,1,712,44.94Z"/><path class="cls-1" d="M658,25.81l-.05,8.11A92.76,92.76,0,0,1,723,99l8.11-.06A100.45,100.45,0,0,0,658,25.81Z"/><path class="cls-1" d="M658,45.78,657.94,54a73.85,73.85,0,0,1,45,45l8.27-.06A81.4,81.4,0,0,0,658,45.78Z"/><path class="cls-1" d="M658,68.67,657.78,100l31.33-.21A61.43,61.43,0,0,0,658,68.67Z"/><path class="cls-1" d="M40.74,45A110.48,110.48,0,0,1,94.8,15.27l-.06-8A118.31,118.31,0,0,0,3,99l8,.06A110.48,110.48,0,0,1,40.74,45Z"/><path class="cls-1" d="M21.61,99l8.11.05A92.76,92.76,0,0,1,94.8,34l-.06-8.11A100.45,100.45,0,0,0,21.61,99Z"/><path class="cls-1" d="M41.58,99l8.27.06a73.85,73.85,0,0,1,45-45l-.06-8.27A81.4,81.4,0,0,0,41.58,99Z"/><path class="cls-1" d="M64.47,99l31.33.22-.21-31.33A61.43,61.43,0,0,0,64.47,99Z"/></svg>