<svg fill="#000000" xmlns="http://www.w3.org/2000/svg" xmlns:xlink="http://www.w3.org/1999/xlink" version="1.1" x="0px" y="0px" viewBox="0 0 100 100" enable-background="new 0 0 100 100" xml:space="preserve"><path d="M84,15.6H70.9c-8,0-14.4,6.4-14.4,14.4c0,6.4,4.1,11.8,9.9,13.7v6.9c0,0.6,0.8,1,1.2,0.5l6.6-6.6H84c8,0,14.4-6.4,14.4-14.4  C98.4,22,91.9,15.6,84,15.6z M81,34.9c-0.5,0.7-1.3,1.1-2.1,1.3c-0.4,0.1-0.5,0.3-0.5,0.7c0,0.4,0,0.7,0,1.1c0,0.3-0.2,0.5-0.5,0.5  c-0.4,0-0.8,0-1.2,0c-0.4,0-0.5-0.2-0.5-0.5c0-0.3,0-0.5,0-0.8c0-0.6,0-0.6-0.6-0.7c-0.7-0.1-1.5-0.3-2.1-0.6  c-0.5-0.3-0.6-0.4-0.4-0.9c0.1-0.4,0.2-0.8,0.4-1.2c0.1-0.5,0.3-0.5,0.7-0.3c0.7,0.4,1.5,0.6,2.4,0.7c0.5,0.1,1.1,0,1.6-0.2  c0.9-0.4,1.1-1.5,0.3-2.1c-0.3-0.2-0.6-0.4-0.9-0.5c-0.8-0.4-1.7-0.6-2.4-1.1c-1.2-0.7-2-1.8-1.9-3.3c0.1-1.7,1.1-2.8,2.6-3.3  c0.6-0.2,0.6-0.2,0.7-0.9c0-0.2,0-0.5,0-0.7c0-0.5,0.1-0.6,0.6-0.6c0.2,0,0.3,0,0.5,0c1.1,0,1.1,0,1.1,1.1c0,0.8,0,0.8,0.8,0.9  c0.6,0.1,1.1,0.3,1.7,0.5c0.3,0.1,0.4,0.3,0.3,0.7c-0.1,0.5-0.3,0.9-0.4,1.4c-0.1,0.4-0.3,0.5-0.7,0.3c-0.8-0.4-1.7-0.6-2.7-0.5  c-0.2,0-0.5,0-0.7,0.1c-0.8,0.4-0.9,1.2-0.3,1.8c0.3,0.3,0.7,0.5,1.2,0.6c0.7,0.3,1.4,0.6,2.1,1C82,30.3,82.6,33,81,34.9z   M30.6,85.1h-29v-9.4c0-2,0.9-3.9,2.4-5.1c8.5-7,17.7-11.6,19.6-12.6c0.2-0.1,0.3-0.3,0.3-0.5v-4.9c-1.3-2.2-1.9-4.5-2.3-6.7  c-0.7-0.1-1.7-1.1-2.8-4.8c-1.4-5.1,0.1-5.9,1.4-5.8c0,0-3.6-12.1,5.1-17.4c0,0-1.5-1.2-1.4-3c0,0,8.4,1,12.5,0.1  c4.1-0.8,8.4,2.4,9.1,5.4c0,0,8.7-0.7,5,14.8c0,0,0,0.3-0.2,0.9l0.3,0c1,0.3,1.7,1.7,0.5,5.7c-1.4,4.9-2.7,5.2-3.4,4.7  c-0.3,1.7-0.8,3.6-1.7,5.3c0,2.5,0,4.8,0,5.7c0,0.2,0.1,0.4,0.3,0.5c1.9,0.9,11,5.6,19.6,12.6c1.5,1.3,2.4,3.1,2.4,5.1v9.4h-29  L36.5,72c5.8-8.1-0.4-8.5-1.5-8.5h0h0c-1.1,0-7.3,0.4-1.5,8.5L30.6,85.1z"/></svg>