<svg fill="#000000" xmlns="http://www.w3.org/2000/svg" xmlns:xlink="http://www.w3.org/1999/xlink" version="1.1" x="0px" y="0px" viewBox="0 0 52 52" enable-background="new 0 0 52 52" xml:space="preserve"><g><path d="M15.7368555,17.6491699h20.5288086c-0.7971191-1.0615234-1.6017456-2.1184082-2.4015503-3.1589355L37.2856827,2   l-6.4215698,3.3823242l-4.8725586-2.5686035l-4.8627319,2.5686035L14.7170191,2l3.4216299,12.4902344   C17.35923,15.5061035,16.5508804,16.5666504,15.7368555,17.6491699z"/><path d="M42.1876602,26.0292969c-1.3326416-2.0673828-2.8643188-4.239502-4.4660034-6.4194336H14.2782373   c-1.5663452,2.1286621-3.1074219,4.3081055-4.4631958,6.4194336c-2.6567993,4.1176758-3.1764526,9.0981445-1.4411621,13.666748   c1.7451172,4.5883789,5.4901733,7.9902344,10.2745352,9.3234863C20.9915543,49.666748,23.4621353,50,26.0013199,50   c2.52948,0,5.0098267-0.333252,7.3529663-0.9804688c4.7843628-1.333252,8.5294189-4.7351074,10.2745361-9.333252   C45.3641129,35.1274414,44.8346939,30.1469727,42.1876602,26.0292969z M26.0013199,42.5588379   c-5.2646484,0-9.5391846-4.2844238-9.5391846-9.5393066c0-5.2646484,4.2745361-9.5390625,9.5391846-9.5390625   c5.2549438,0,9.5393066,4.2744141,9.5393066,9.5390625C35.5406265,38.2744141,31.2562637,42.5588379,26.0013199,42.5588379z"/><polygon points="26.9817276,27.1374512 25.0209732,27.1374512 25.0209732,32.0393066 20.1191177,32.0393066 20.1191177,34    25.0209732,34 25.0209732,38.9018555 26.9817276,38.9018555 26.9817276,34 31.8835831,34 31.8835831,32.0393066    26.9817276,32.0393066  "/></g></svg>