<svg fill="#000000" xmlns="http://www.w3.org/2000/svg" xmlns:xlink="http://www.w3.org/1999/xlink" version="1.1" x="0px" y="0px" viewBox="0 0 24 24" enable-background="new 0 0 24 24" xml:space="preserve"><g><path d="M12,24C5.383,24,0,18.616,0,12C0,5.383,5.383,0,12,0c6.616,0,12,5.383,12,12C24,18.616,18.616,24,12,24z M12,1.846   C6.401,1.846,1.846,6.401,1.846,12S6.401,22.154,12,22.154S22.154,17.599,22.154,12S17.599,1.846,12,1.846z"/></g><g><g><path d="M12,16.154c-0.51,0-0.923-0.413-0.923-0.923v-2.654c0-0.51,0.413-0.923,0.923-0.923c1.188,0,2.154-0.966,2.154-2.154    S13.188,7.345,12,7.345c-1.188,0-2.154,0.967-2.154,2.155c0,0.51-0.413,0.923-0.923,0.923S8,10.009,8,9.5c0-2.206,1.794-4,4-4    s4.001,1.794,4.001,4c0,1.888-1.315,3.476-3.078,3.893v1.839C12.923,15.741,12.51,16.154,12,16.154z"/></g><g><path d="M12,18.503c-0.24,0-0.48-0.103-0.655-0.269c-0.166-0.175-0.268-0.415-0.268-0.654c0-0.241,0.102-0.48,0.268-0.656    c0.359-0.341,0.96-0.341,1.311,0c0.166,0.176,0.268,0.415,0.268,0.656c0,0.239-0.102,0.479-0.268,0.654    C12.479,18.4,12.24,18.503,12,18.503z"/></g></g></svg>