<svg fill="#000000" xmlns="http://www.w3.org/2000/svg" xmlns:xlink="http://www.w3.org/1999/xlink" version="1.1" x="0px" y="0px" viewBox="0 0 60 60" enable-background="new 0 0 60 60" xml:space="preserve"><polygon points="39.798,3.665 39.798,13.793 49.929,13.793 "/><path d="M38.612,14.946V3.665H10.071v52.15h39.857V14.946H38.612z M13.224,6.479h22.629v2.25H13.224V6.479z M13.224,12.647h22.629  v2.25H13.224V12.647z M39.596,41.011c-0.422,0.906-1.007,1.696-1.756,2.372c-0.761,0.688-1.69,1.258-2.788,1.711  c-1.098,0.452-2.335,0.715-3.711,0.787v6.554h-2.97v-6.464c-1.304-0.012-2.752-0.175-4.345-0.489  c-1.593-0.314-2.854-0.706-3.784-1.176v-5.251h0.579c0.58,0.373,1.624,0.805,3.132,1.294c1.509,0.489,3.011,0.764,4.509,0.824  v-5.015l-1.612-0.398c-0.929-0.229-1.816-0.507-2.661-0.833c-0.845-0.326-1.606-0.772-2.282-1.339  c-0.664-0.555-1.186-1.229-1.566-2.019c-0.38-0.79-0.57-1.807-0.57-3.05c0-1.81,0.757-3.353,2.272-4.626  c1.515-1.274,3.624-2.043,6.328-2.309v-4.218h2.97v4.182c1.086,0.036,2.332,0.197,3.738,0.48c1.406,0.284,2.484,0.588,3.232,0.914  v5.214h-0.58c-0.881-0.543-1.84-0.971-2.878-1.285c-1.038-0.314-2.239-0.508-3.603-0.58v4.599l1.593,0.344  c2.511,0.543,4.37,1.338,5.577,2.382c1.207,1.044,1.81,2.55,1.81,4.517C40.23,39.147,40.018,40.106,39.596,41.011z"/><path d="M26.09,28.374c0,0.519,0.144,0.947,0.435,1.285c0.289,0.339,0.977,0.635,2.063,0.888v-4.237  c-0.676,0.061-1.261,0.26-1.756,0.598C26.337,27.245,26.09,27.734,26.09,28.374z"/><path d="M31.123,36.503v4.634c0.76-0.072,1.4-0.286,1.919-0.642c0.519-0.356,0.778-0.909,0.778-1.657  c0-0.604-0.215-1.098-0.642-1.485C32.749,36.968,32.064,36.684,31.123,36.503z"/></svg>