<svg fill="#000000" xmlns="http://www.w3.org/2000/svg" xmlns:xlink="http://www.w3.org/1999/xlink" version="1.1" x="0px" y="0px" viewBox="0 0 100 100" enable-background="new 0 0 100 100" xml:space="preserve"><g><g><path d="M49.9,65.508c-0.567,0-1.086-0.32-1.341-0.828l-4.521-9.022c-0.233-0.465-0.208-1.018,0.065-1.46    c0.273-0.442,0.756-0.712,1.276-0.712h8.967c0.519,0,1,0.268,1.274,0.708c0.273,0.44,0.301,0.991,0.071,1.456l-4.445,9.022    c-0.252,0.511-0.771,0.835-1.341,0.837C49.903,65.508,49.901,65.508,49.9,65.508z M47.808,56.485l2.081,4.151l2.045-4.151H47.808z    "/></g><g><circle cx="67.993" cy="76.791" r="0.891"/><path d="M70.927,60.491c0.158,2.847,0.144,6.975-0.802,10.601c2.272,0.877,3.891,3.078,3.891,5.656    c0,3.345-2.721,6.066-6.066,6.066s-6.065-2.721-6.065-6.066c0-3.057,2.275-5.586,5.22-6c1.28-4.404,0.878-10.119,0.647-12.345    c-2.493-1.454-5.179-2.612-8.014-3.417l-9.57,16.816l-10.958-16.39c-1.237,0.408-2.441,0.886-3.613,1.424l0.063,11.798    c1.477,0.258,2.672,0.917,3.56,1.975c1.466,1.745,1.639,4.053,1.583,5.441c0.594,0.548,0.972,1.327,0.972,2.197    c0,1.654-1.346,3-3,3s-3-1.346-3-3c0-1.312,0.852-2.418,2.028-2.824c-0.028-0.944-0.229-2.114-0.886-2.892    c-0.583-0.688-1.482-1.023-2.75-1.023c-1.279,0-2.197,0.341-2.807,1.044c-0.675,0.779-0.909,1.941-0.963,2.883    c1.155,0.418,1.987,1.515,1.987,2.812c0,1.654-1.346,3-3,3s-3-1.346-3-3c0-0.885,0.393-1.674,1.004-2.223    c-0.015-1.38,0.212-3.703,1.692-5.421c0.905-1.051,2.106-1.709,3.58-1.968l-0.055-10.243c-10.4,6.057-17.395,17.322-17.395,30.226    h69.915C85.125,77.085,79.539,66.858,70.927,60.491z"/><path d="M64.884,76.747c0,1.69,1.375,3.066,3.065,3.066s3.066-1.375,3.066-3.066s-1.375-3.066-3.066-3.066    S64.884,75.057,64.884,76.747z M67.993,74.682c1.163,0,2.109,0.946,2.109,2.109S69.156,78.9,67.993,78.9s-2.109-0.946-2.109-2.109    S66.83,74.682,67.993,74.682z"/></g><circle cx="49.906" cy="30.267" r="19.218"/></g></svg>