<?xml version="1.0" encoding="utf-8"?>
<!-- Generator: Adobe Illustrator 21.1.0, SVG Export Plug-In . SVG Version: 6.00 Build 0)  -->
<svg version="1.1" id="Layer_1" xmlns="http://www.w3.org/2000/svg" xmlns:xlink="http://www.w3.org/1999/xlink" x="0px" y="0px"
	 viewBox="0 0 44.8 44.7" style="enable-background:new 0 0 44.8 44.7;" xml:space="preserve">
<path d="M43.5,8.5l-5.4,5.4L31.8,13l-0.9-6.3l5.4-5.4c-1.8-1.8-6.2-1.9-9.4,1.3C23.8,5.7,23,10.2,24.4,14L1.3,37.2
	c-1.7,1.7-1.7,4.6,0,6.3c1.7,1.7,4.6,1.7,6.3,0l23.1-23.1c3.8,1.4,8.4,0.6,11.4-2.5C45.5,14.6,45.3,10.3,43.5,8.5z M7.8,40.8L5.6,43
	l-3-0.8l-0.8-3L4,37l3,0.8L7.8,40.8z"/>
</svg>
