<svg fill="#000000" xmlns="http://www.w3.org/2000/svg" xmlns:xlink="http://www.w3.org/1999/xlink" version="1.1" x="0px" y="0px" viewBox="0 0 100 100" enable-background="new 0 0 100 100" xml:space="preserve"><circle fill="#000000" cx="49.736" cy="47.312" r="29.886"/><path fill="#000000" d="M15.38,43.596C15.77,24.979,31.025,9.949,49.735,9.949c18.639,0,33.849,14.914,34.349,33.435  c-0.076,0.378-0.121,17.284-0.121,17.284c0,0.713,0.128,1.393,0.355,2.014c-3.583,12.552-14.126,22.185-27.173,24.444  c-1.193-1.008-2.926-1.646-4.861-1.646c-3.595,0-6.511,2.195-6.511,4.902c0,2.711,2.916,4.905,6.511,4.905  c2.954,0,5.444-1.48,6.242-3.509c13.927-2.619,25.271-12.626,29.804-25.782c0.144,0.015,0.284,0.025,0.432,0.025  c2.651,0,4.802-2.395,4.802-5.354V44.562c0-2.958-2.15-5.355-4.802-5.355c-0.059,0-0.116,0.008-0.173,0.009  C86.077,20.01,69.616,5.125,49.735,5.125c-19.883,0-36.342,14.885-38.854,34.094c-0.065-0.003-0.129-0.012-0.197-0.012  c-2.639,0-4.776,2.397-4.776,5.355v16.105c0,2.959,2.137,5.354,4.776,5.354c2.64,0,4.779-2.395,4.779-5.354"/></svg>