<svg fill="#000000" xmlns="http://www.w3.org/2000/svg" xmlns:xlink="http://www.w3.org/1999/xlink" version="1.1" x="0px" y="0px" viewBox="0 0 100 100" enable-background="new 0 0 100 100" xml:space="preserve"><path d="M50,3.183c-16.955,0-30.748,13.794-30.748,30.75c0,15.72,25.263,55.935,28.143,60.47c0.566,0.89,1.549,1.43,2.605,1.43  c1.056,0,2.038-0.54,2.605-1.43c2.879-4.535,28.143-44.75,28.143-60.47C80.748,16.977,66.955,3.183,50,3.183z M49.999,49.509  c-7.93,0-14.357-6.429-14.357-14.357c0-7.929,6.428-14.357,14.357-14.357s14.359,6.428,14.359,14.357  C64.358,43.08,57.929,49.509,49.999,49.509z"/></svg>