<svg fill="#000000" xmlns="http://www.w3.org/2000/svg" xmlns:xlink="http://www.w3.org/1999/xlink" version="1.0" x="0px" y="0px" viewBox="0 0 100 100" style="enable-background:new 0 0 100 100;" xml:space="preserve"><path d="M28.6,91.2c0,0-18.9-60.2-18-64.5s9.4-6,15.3-1.5s16,39.6,15.1,44.2S30.1,75.3,28.6,91.2z"/><path d="M9.2,24.1c0,0-8.2-20.6-6.6-22.6S11.7-1,15.6,3.2c0,0,7.3,12.2,6.6,14.8s-1.5,3.1-3.4,3.1C17,21.1,11.4,20.4,9.2,24.1z"/><rect x="34" y="95.2" width="58" height="4.8"/><path d="M94.7,93.2C99.4,84,97,75.5,91,70.6c-6.5-5.3-40.9-2-48.1,3.2c-11.1,8-11.1,19.4-11.1,19.4H94.7z"/></svg>