<svg xmlns="http://www.w3.org/2000/svg" viewBox="0 0 94.08 59.81"><defs><style>.cls-1{fill:#4b4b4b;}</style></defs><title>Asset 12</title><g id="Layer_2" data-name="Layer 2"><g id="Layer_1-2" data-name="Layer 1"><g id="ime_keyboard_light_2" data-name="ime_keyboard_light 2"><path class="cls-1" d="M71.8,54H22.37c0,.56,0,1.08,0,1.6a4.21,4.21,0,0,1-4.66,4.17,65.37,65.37,0,0,0-7.82,0,4.2,4.2,0,0,1-4.38-4.08,109.2,109.2,0,0,1,.11-14.54,30.55,30.55,0,0,1,1.51-7.62,1.1,1.1,0,0,0,0-.57,11.18,11.18,0,0,1-.53-1.48c-.21-1.7-1.45-2.08-2.82-2.39A28.25,28.25,0,0,1,1,28.31a1.45,1.45,0,0,1-1-1.87c.13-.59.27-1.17.44-1.75a1.63,1.63,0,0,1,1.73-1.2c2,.22,3.94.45,5.9.72a1.58,1.58,0,0,1,1.36,1.72c-.16,1.18-.78,2.39.08,3.55,0,.06.08.13.19.34C10.42,28.35,11,27,11.61,25.7c2-4.31,3.89-8.63,5.88-12.93,1.26-2.71,3.61-3.81,6.42-4.09,1.17-.12,2.35-.18,3.53-.18q20,0,40,0a14.21,14.21,0,0,1,5.85,1,7.59,7.59,0,0,1,3.76,4.23c2.11,4.73,4.26,9.44,6.39,14.16.29.64.57,1.29.89,2a3,3,0,0,0,.53-2.66c-.7-2.54-.22-3,2.69-3.22,1.27-.11,2.55-.26,3.82-.44s1.87.13,2.25,1.26a8.56,8.56,0,0,1,.28,1.06c.37,1.84,0,2.3-1.79,2.76-1.19.3-2.37.64-3.55,1a.78.78,0,0,0-.48.43c-.39.91-.76,1.84-1.09,2.77a1.45,1.45,0,0,0,0,.84,32.87,32.87,0,0,1,1.66,10.64c.1,3.75,0,7.5,0,11.25a4.28,4.28,0,0,1-4.26,4.23q-4.05,0-8.1,0a4.51,4.51,0,0,1-4.52-4.34C71.79,55,71.8,54.57,71.8,54ZM75,26.08c-.57-1.38-1.09-2.81-1.75-4.17-1-2.14-2.16-4.23-3.27-6.33a1.77,1.77,0,0,0-1.79-1c-5,0-9.91,0-14.86,0-9,0-18.09,0-27.14,0A2.3,2.3,0,0,0,23.87,16c-1.1,2.2-2.22,4.38-3.28,6.59-.55,1.14-1,2.34-1.47,3.53A490.15,490.15,0,0,1,75,26.08ZM64.77,45A39.42,39.42,0,0,0,78,45.15a4,4,0,0,0,3.07-2.07,6.43,6.43,0,0,0,0-6,5.36,5.36,0,0,0-1.63-1.82c-1.22-.91-2.47-.33-3.63.22A30.65,30.65,0,0,0,69,40.28,20.17,20.17,0,0,0,64.77,45ZM29.31,45a6.91,6.91,0,0,0-.43-.76A30.25,30.25,0,0,0,18,35.43c-2.14-1-3.45-.64-4.63,1.08a5.8,5.8,0,0,0-1,3.1c-.13,2.91.79,5,3.75,5.55A38.51,38.51,0,0,0,29.31,45ZM47,47.91h0c-5,0-10,0-14.94,0-2.1,0-2.1-.05-2.07,2,0,.91.19,1.09,1.11,1.1H62.27a1.82,1.82,0,0,0,1.82-1.84c0-1.15-.12-1.27-1.25-1.27ZM33.19,45H57.8c.93,0,1.86,0,2.79,0,.21,0,.54-.14.59-.3A16.13,16.13,0,0,0,61.62,43h-29Zm29.37-7H31.76c0,.29,0,.52.07.74C32,40,32,40,33.31,40H62.18Z"/><path class="cls-1" d="M31.55,7A19.43,19.43,0,0,1,33.94.7a1.56,1.56,0,0,1,1.4-.7c7.87,0,15.73,0,23.6,0a1.84,1.84,0,0,1,1.29.61A16.39,16.39,0,0,1,62.69,7Z"/></g></g></g></svg>