<svg fill="#000000" xmlns="http://www.w3.org/2000/svg" data-name="Layer 22 copy 2" viewBox="0 0 100 100" x="0px" y="0px"><title>Artboard 1</title><path d="M53.13,68.09a.82.82,0,0,1-.71,1.23H47.58a.82.82,0,0,1-.71-1.23l2.42-4.19a.82.82,0,0,1,1.42,0ZM38.56,51.76l-4.19-2.42a.82.82,0,0,0-1.23.71v4.83a.82.82,0,0,0,1.23.71l4.19-2.42A.82.82,0,0,0,38.56,51.76Zm-1.82-8.12,4.67,1.25a.82.82,0,0,0,1-1l-1.25-4.67a.82.82,0,0,0-1.37-.37l-3.42,3.42A.82.82,0,0,0,36.74,43.63ZM49.29,41a.82.82,0,0,0,1.42,0l2.42-4.19a.82.82,0,0,0-.71-1.23H47.58a.82.82,0,0,0-.71,1.23Zm9.3,3.85,4.67-1.25a.82.82,0,0,0,.37-1.37l-3.42-3.42a.82.82,0,0,0-1.37.37l-1.25,4.67A.82.82,0,0,0,58.59,44.89ZM41.41,60.05,36.74,61.3a.82.82,0,0,0-.37,1.37l3.42,3.42a.82.82,0,0,0,1.37-.37l1.25-4.67A.82.82,0,0,0,41.41,60.05ZM63.26,61.3l-4.67-1.25a.82.82,0,0,0-1,1l1.25,4.67a.82.82,0,0,0,1.37.37l3.42-3.42A.82.82,0,0,0,63.26,61.3Zm2.36-12-4.19,2.42a.82.82,0,0,0,0,1.42l4.19,2.42a.82.82,0,0,0,1.23-.71V50.05A.82.82,0,0,0,65.62,49.34Zm-7.09,3.13A8.54,8.54,0,1,1,50,43.93,8.54,8.54,0,0,1,58.54,52.47Zm-3.09,0A5.45,5.45,0,1,0,50,57.91,5.45,5.45,0,0,0,55.45,52.47Zm31.55,7H85.63L80.21,72.65A24.33,24.33,0,0,1,83,75.47c1.76,2.74-1.95,4.79-5.14,5.43L65,82.47a134.1,134.1,0,0,1-14,2c-4.68.38-10.4-1.06-15-2L22.12,80.86C18.91,80.2,15,78.06,17,75.47c.3-.38,2.79-2.82,2.79-2.82L14.37,59.47H13v-14h1.37l5.49-13.24-1-1,9.9-9.9,1,.91L43,16.84V15.47H57l.09,1.37,13.16,5.49,1-1,9.9,9.9-1,1,5.49,13.16,1.37.09ZM67.62,64.24l3.16-7.64V48.33l-3.16-7.64-5.85-5.85-7.64-3.16H45.87l-7.64,3.16-5.85,5.85-3.16,7.64V56.6l3.16,7.64,5.85,5.85,7.64,3.16h8.27l7.64-3.16Z"/></svg>