<svg fill="#000000" xmlns:dc="http://purl.org/dc/elements/1.1/" xmlns:cc="http://creativecommons.org/ns#" xmlns:rdf="http://www.w3.org/1999/02/22-rdf-syntax-ns#" xmlns:svg="http://www.w3.org/2000/svg" xmlns="http://www.w3.org/2000/svg" xmlns:sodipodi="http://sodipodi.sourceforge.net/DTD/sodipodi-0.dtd" xmlns:inkscape="http://www.inkscape.org/namespaces/inkscape" version="1.1" x="0px" y="0px" viewBox="0 0 32 32"><g transform="translate(0,-1020.3622)"><g transform="translate(-200,-527)"><g transform="translate(200,491)"><g><g><path style="color:#000000;font-style:normal;font-variant:normal;font-weight:normal;font-stretch:normal;font-size:medium;line-height:normal;font-family:sans-serif;text-indent:0;text-align:start;text-decoration:none;text-decoration-line:none;text-decoration-style:solid;text-decoration-color:#000000;letter-spacing:normal;word-spacing:normal;text-transform:none;direction:ltr;block-progression:tb;writing-mode:lr-tb;baseline-shift:baseline;text-anchor:start;white-space:normal;clip-rule:nonzero;display:inline;overflow:visible;visibility:visible;opacity:1;isolation:auto;mix-blend-mode:normal;color-interpolation:sRGB;color-interpolation-filters:linearRGB;solid-color:#000000;solid-opacity:1;fill:#000000;fill-opacity:1;fill-rule:nonzero;stroke:none;stroke-width:0.99999994;stroke-linecap:round;stroke-linejoin:round;stroke-miterlimit:3.70000005;stroke-dasharray:none;stroke-dashoffset:0;stroke-opacity:1;color-rendering:auto;image-rendering:auto;shape-rendering:auto;text-rendering:auto;enable-background:accumulate" d="M 3.4648438,8 C 3.0933776,8 2.7466093,8.1145719 2.4746094,8.3261719 2.2026094,8.5377719 2,8.8698 2,9.25 l 0,13.5 c 0,0.3803 0.2026094,0.714281 0.4746094,0.925781 C 2.7466093,23.887381 3.0933777,24 3.4648438,24 l 25.0703122,0 c 0.371466,0 0.718235,-0.112619 0.990235,-0.324219 C 29.797391,23.464281 30,23.1303 30,22.75 L 30,9.25 C 30,8.8698 29.797391,8.5377719 29.525391,8.3261719 29.253391,8.1145719 28.906622,8 28.535156,8 Z m 0,1 25.0703122,0 c 0.162749,0 0.300364,0.055934 0.376953,0.1152344 C 28.988699,9.1752344 29,9.2153 29,9.25 l 0,13.5 c 0,0.035 -0.0113,0.07702 -0.08789,0.136719 C 28.835519,22.946719 28.697905,23 28.535156,23 L 3.4648438,23 C 3.3020954,23 3.1644799,22.946019 3.0878906,22.886719 3.0113013,22.827219 3,22.7853 3,22.75 L 3,9.25 C 3,9.215 3.0113006,9.1749344 3.0878906,9.1152344 3.1644796,9.0552344 3.3020954,9 3.4648438,9 Z M 5,10 c -0.5463624,0 -1,0.4537 -1,1 0,0.5464 0.4536376,1 1,1 0.5463624,0 1,-0.4536 1,-1 0,-0.5463 -0.4536376,-1 -1,-1 z m 22,0 c -0.546362,0 -1,0.4537 -1,1 0,0.5464 0.453638,1 1,1 0.546362,0 1,-0.4536 1,-1 0,-0.5463 -0.453638,-1 -1,-1 z M 5,20 c -0.5463624,0 -1,0.4537 -1,1 0,0.5464 0.4536376,1 1,1 0.5463624,0 1,-0.4536 1,-1 0,-0.5463 -0.4536376,-1 -1,-1 z m 22,0 c -0.546362,0 -1,0.4537 -1,1 0,0.5464 0.453638,1 1,1 0.546362,0 1,-0.4536 1,-1 0,-0.5463 -0.453638,-1 -1,-1 z" transform="translate(0,1056.3622)"/></g></g></g></g></g></svg>