<svg xmlns="http://www.w3.org/2000/svg" viewBox="0 0 73.03 60"><defs><style>.cls-1{fill:#4b4b4b;}</style></defs><title>Asset 7</title><g id="Layer_2" data-name="Layer 2"><g id="Layer_1-2" data-name="Layer 1"><g id="ime_keyboard_light_2" data-name="ime_keyboard_light 2"><path class="cls-1" d="M66.39,0H6.67A6.67,6.67,0,0,0,0,6.67V46.33A6.67,6.67,0,0,0,6.67,53H24v7H51V53H66.39A6.6,6.6,0,0,0,73,46.38L73,6.63A6.63,6.63,0,0,0,66.39,0ZM67,47H7V7H67ZM61,17H24v7H61Zm0,13H24v7H61ZM21,17H14v7h7Zm0,13H14v7h7Z"/></g></g></g></svg>