<svg fill="#000000" xmlns="http://www.w3.org/2000/svg" xmlns:xlink="http://www.w3.org/1999/xlink" version="1.1" x="0px" y="0px" viewBox="0 0 100 100" enable-background="new 0 0 100 100" xml:space="preserve"><path fill-rule="evenodd" clip-rule="evenodd" d="M92.925,88.262V40.127c0-2.297-1.882-4.179-4.184-4.179H11.317  c-2.301,0-4.183,1.882-4.183,4.179v48.134c0,2.273,1.929,4.122,4.299,4.122h77.198C90.996,92.384,92.925,90.535,92.925,88.262  L92.925,88.262z M68.12,14.05h13.464V8.478C81.584,7.111,80.435,6,79.01,6h-8.311c-1.426,0-2.579,1.111-2.579,2.478V14.05  L68.12,14.05z M88.631,18.03c-25.735,0-51.469,0-77.198,0c-6.158,0-11.165,4.813-11.165,10.732v59.5  c0,5.915,5.007,10.729,11.165,10.729h77.198c6.152,0,11.156-4.813,11.156-10.729V28.759C99.787,22.843,94.783,18.03,88.631,18.03  L88.631,18.03z M18.296,14.05h13.459V8.478C31.756,7.111,30.603,6,29.177,6h-8.309c-1.423,0-2.571,1.111-2.571,2.478V14.05z"/><circle fill-rule="evenodd" clip-rule="evenodd" cx="24.576" cy="53.252" r="7.278"/><path fill-rule="evenodd" clip-rule="evenodd" d="M44.883,58.398c-2.845-2.841-2.845-7.447,0-10.296  c2.841-2.837,7.451-2.837,10.292,0c2.841,2.849,2.841,7.455,0,10.296C52.334,61.243,47.724,61.243,44.883,58.398z"/><circle fill-rule="evenodd" clip-rule="evenodd" cx="75.98" cy="53.249" r="7.279"/><path fill-rule="evenodd" clip-rule="evenodd" d="M19.181,81.284c-2.844-2.842-2.844-7.448,0-10.296  c2.841-2.839,7.451-2.839,10.292,0c2.841,2.848,2.841,7.454,0,10.296C26.632,84.129,22.022,84.129,19.181,81.284z"/><circle fill-rule="evenodd" clip-rule="evenodd" cx="49.78" cy="76.134" r="7.278"/><path fill-rule="evenodd" clip-rule="evenodd" d="M70.585,81.28c-2.845-2.841-2.845-7.447,0-10.296  c2.841-2.838,7.451-2.838,10.292,0c2.842,2.849,2.842,7.455,0,10.296C78.036,84.125,73.426,84.125,70.585,81.28z"/></svg>