<svg fill="#000000" xmlns="http://www.w3.org/2000/svg" xmlns:xlink="http://www.w3.org/1999/xlink" version="1.1" x="0px" y="0px" viewBox="0 0 91 91" enable-background="new 0 0 91 91" xml:space="preserve"><g><path d="M41.661,32.758c0.51-0.177,0.927-0.554,1.155-1.044l1.517-3.25l1.087,5.117c0.126,0.59,0.51,1.092,1.047,1.367   c0.537,0.275,1.169,0.292,1.722,0.051l4.132-1.823l-0.807,4.729c-0.125,0.733,0.165,1.474,0.757,1.926   c0.591,0.451,1.382,0.54,2.057,0.229l5.885-2.722c1.005-0.463,1.44-1.653,0.977-2.658c-0.464-1.003-1.656-1.441-2.657-0.978   L56.1,34.825l0.793-4.649c0.123-0.728-0.161-1.463-0.742-1.916c-0.583-0.457-1.365-0.55-2.04-0.253l-5.286,2.332l-1.814-8.558   c-0.18-0.844-0.877-1.478-1.733-1.576c-0.846-0.09-1.677,0.362-2.041,1.145l-3.177,6.808l-5.825-2.911   c-0.733-0.366-1.617-0.25-2.229,0.297c-0.612,0.548-0.829,1.412-0.545,2.183l2.386,6.5l-4.153,1.058   c-0.633,0.161-1.15,0.621-1.38,1.233c-0.232,0.612-0.15,1.298,0.219,1.837l3.312,4.843c0.388,0.568,1.016,0.873,1.654,0.873   c0.39,0,0.783-0.112,1.128-0.349c0.913-0.623,1.146-1.869,0.523-2.783l-1.694-2.479l3.53-0.898   c0.549-0.142,1.014-0.507,1.278-1.009c0.264-0.501,0.303-1.092,0.107-1.624l-1.413-3.844l3.149,1.573   C40.589,32.899,41.149,32.935,41.661,32.758z"/><path d="M60.242,70.381c3.376-0.396,5.795-3.468,5.396-6.843c-0.397-3.38-3.465-5.801-6.841-5.401   c-3.379,0.397-5.803,3.464-5.402,6.843C53.795,68.355,56.861,70.78,60.242,70.381z"/><path d="M87.366,31.971l-16.002,1.884c-0.399,0.047-0.767,0.223-1.056,0.498L57.356,49.621l-6.888,0.813   c-2.284,0.329-6.417,2.566-5.694,8.697c0.599,5.085,3.828,6.969,6.158,7.416c-0.105-0.404-0.197-0.818-0.248-1.247   c-0.572-4.873,2.92-9.301,7.795-9.877c4.869-0.574,9.294,2.922,9.868,7.797c0.074,0.624,0.08,1.245,0.024,1.85l22.585-2.661   L87.366,31.971z"/><path d="M32.29,63.254c0-3.465-2.817-6.282-6.278-6.282c-3.466,0-6.283,2.817-6.283,6.282c0,3.464,2.817,6.28,6.283,6.28   C29.473,69.534,32.29,66.718,32.29,63.254z"/><path d="M16.957,63.254c0-4.996,4.064-9.064,9.062-9.064s9.062,4.068,9.062,9.064c0,0.53-0.054,1.051-0.143,1.559h3.245   c1.037,0,1.877-0.84,1.877-1.877V52.842c0-1.035-0.84-1.875-1.877-1.875l-6.846-2.781L19.45,34.405   c-0.348-0.324-0.804-0.503-1.28-0.503H0V65.13h17.154C17.026,64.523,16.957,63.896,16.957,63.254z"/></g></svg>