<svg fill="#000000" xmlns="http://www.w3.org/2000/svg" xmlns:xlink="http://www.w3.org/1999/xlink" version="1.1" x="0px" y="0px" viewBox="0 0 100 100" enable-background="new 0 0 100 100" xml:space="preserve"><g><path d="M92.816,48.152c1.76-4.784,1.207-10.866-1.69-15.381c-0.591-0.925-12.271-16.849-20.621-18.146   c-5.873,0.504,10.358,14.148,6.48,16.903c-2.018,3.394-1.292,6.393,0.52,10.515c1.302,2.296,4.448,7.058,8.499,8.642v24.768   c0,2.983-1.832,5.4-4.089,5.4c-2.259,0-4.09-2.417-4.089-5.4l0.002-22.566c0.002-2.983-2.405-5.866-5.374-5.866h-5.377V13.075   C67.077,8.614,63.463,5,59.001,5H17.957c-4.462,0-8.076,3.614-8.076,8.075v75.197H9.546c-1.86,0-3.364,1.505-3.364,3.363V95h64.595   v-3.364c0-1.858-1.505-3.363-3.363-3.363h-0.336V54.472h2.136c0.994,0,1.8,0.806,1.8,1.8v20.456c0,5.964,4.835,10.8,10.8,10.8   h0.203c5.966,0,10.801-4.836,10.801-10.8V48.152z M59.339,45.182h-41.72V18.799h0.159H59.18h0.159V45.182z M87.527,44.725   c-1.312-0.275-3.314-2.349-4.821-4.988c-0.604-1.378-1.744-4.73,0.563-5.69c1.077,0,2.217,0.817,3.121,2.243   C87.751,38.421,88.494,41.849,87.527,44.725z"/></g></svg>