<svg xmlns="http://www.w3.org/2000/svg" viewBox="0 0 62.61 59.16"><defs><style>.cls-1{fill:#4b4b4b;}</style></defs><title>Asset 9</title><g id="Layer_2" data-name="Layer 2"><g id="Layer_1-2" data-name="Layer 1"><g id="ime_keyboard_light_2" data-name="ime_keyboard_light 2"><path class="cls-1" d="M31.53,29.83A14.92,14.92,0,1,0,16.59,14.95,14.91,14.91,0,0,0,31.53,29.83Z"/><path class="cls-1" d="M0,50.6l.78-5.46a25.26,25.26,0,0,1,1.44-5.07c3.16-6.63,8.57-9.93,15.9-10.15A6.58,6.58,0,0,1,22.74,31a3.76,3.76,0,0,0,1.54.74c2.39.5,3.7,2.18,5.07,4a4.44,4.44,0,0,1,.32,4.72c-1.51,2.85-2.72,5.85-4.11,8.77a1.79,1.79,0,0,0,.4,2.37c1.55,1.47,3,3,4.55,4.51a1.75,1.75,0,0,0,2.45,0C34.51,54.61,36,53,37.6,51.53a1.86,1.86,0,0,0,.4-2.15c-1.64-3.42-3.18-6.88-4.81-10.3A1.58,1.58,0,0,1,33.36,37a3.18,3.18,0,0,0,.49-.69c1.31-2.3,2.91-4.24,5.72-4.71,4.46-3,9-1.88,13.36,0a16.24,16.24,0,0,1,9.21,10.78c.14.46.31.91.47,1.36V57.11a4.26,4.26,0,0,1-4.08,2q-26.63-.05-53.25,0C1.71,59.17-.3,57.58,0,50.6Z"/><path class="cls-1" d="M31.53,29.83A14.92,14.92,0,1,1,46.48,15,14.91,14.91,0,0,1,31.53,29.83Z"/></g></g></g></svg>