<svg id="Layer_1" data-name="Layer 1" xmlns="http://www.w3.org/2000/svg" viewBox="0 0 96.68 100"><defs><style>.cls-1{fill:#4b4b4b;}</style></defs><title>earnings</title><path class="cls-1" d="M13.26,86H83.42a49.74,49.74,0,0,1-35.08,14.33A48.85,48.85,0,0,1,13.26,86ZM83,14.11A50,50,0,0,0,12.84,14H83ZM75.08,44.92a5.13,5.13,0,1,0,5.13,5.13A5.28,5.28,0,0,0,75.08,44.92Zm-53.48,0a5.13,5.13,0,1,0,5.13,5.13A5.13,5.13,0,0,0,21.6,44.92ZM97,28.37V71.66A8.34,8.34,0,0,1,88.66,80H8.34A8.34,8.34,0,0,1,0,71.66V28.34A8.34,8.34,0,0,1,8.34,20H88.52A8.27,8.27,0,0,1,97,28.37Zm-8,9a5.72,5.72,0,0,1-1.76.22,8.64,8.64,0,0,1-8.59-6.75,9.32,9.32,0,0,1,0-3.83H16.8a8.28,8.28,0,0,1,.11,1.62,8.49,8.49,0,0,1-8.41,8.53A6.94,6.94,0,0,1,7,37V63a6.94,6.94,0,0,1,1.49-.11,8.42,8.42,0,0,1,8.41,8.53A8.28,8.28,0,0,1,16.8,73H78.56c0-.32-.11-.65-.11-1.08a8.49,8.49,0,0,1,8.41-8.53,14.24,14.24,0,0,1,2.13.22ZM66.74,50.05a18.4,18.4,0,1,1-18.4-18.4A18.39,18.39,0,0,1,66.74,50.05ZM46.5,45.24A2.84,2.84,0,0,1,47,43.6a1.62,1.62,0,0,1,1.4-.65,1.74,1.74,0,0,1,1.5.76,3,3,0,0,1,.5,1.75c0,.33.3.65.6.55h3.2a.62.62,0,0,0,.6-.67,6.33,6.33,0,0,0-1.4-3.93A5.64,5.64,0,0,0,50,39.26V36.53a.53.53,0,0,0-.53-.53H47.53a.53.53,0,0,0-.53.53v2.81a5.9,5.9,0,0,0-3.6,1.85,5.69,5.69,0,0,0-1.5,4,5.81,5.81,0,0,0,1.4,4.15,16.69,16.69,0,0,0,4.6,2.84,6.25,6.25,0,0,1,1.8,1.2,3,3,0,0,1,.5,1.75,2.84,2.84,0,0,1-.5,1.64,1.69,1.69,0,0,1-1.5.65,2.38,2.38,0,0,1-1.9-.76,3.42,3.42,0,0,1-.7-2,.68.68,0,0,0-.6-.65l-3.2.11a.68.68,0,0,0-.6.65,5.8,5.8,0,0,0,1.7,4.25,7.05,7.05,0,0,0,4.1,2v2.41a.53.53,0,0,0,.53.53h1.93a.53.53,0,0,0,.53-.53V61.05a5.69,5.69,0,0,0,4.7-5.89A5.6,5.6,0,0,0,53.2,51a14.44,14.44,0,0,0-4.6-2.84,4.62,4.62,0,0,1-1.8-1.31A5.07,5.07,0,0,1,46.5,45.24Z"/></svg>