<svg fill="#000000" xmlns="http://www.w3.org/2000/svg" xmlns:xlink="http://www.w3.org/1999/xlink" version="1.1" x="0px" y="0px" viewBox="0 0 52 52" enable-background="new 0 0 52 52" xml:space="preserve"><g><path d="M26.0027466,9c-9.3740234,0-17,7.6259766-17,17s7.6259766,17,17,17s17-7.6259766,17-17S35.37677,9,26.0027466,9z    M31.0916138,32.7854004c-1.0079956,0.8461914-2.4195557,1.352417-4.2342529,1.5188599V37h-1.8015747v-2.6431274   c-2.138916-0.0440063-4.0153198-0.4208374-5.6282349-1.1309204v-3.4716187   c0.7626953,0.37677,1.6812134,0.710083,2.7549438,0.9993896s2.0316772,0.4602661,2.873291,0.5128784v-4.0765381   l-0.8810425-0.3418579c-1.7358398-0.6838379-2.965332-1.4268188-3.6885986-2.2289429   c-0.7232666-0.8021851-1.0848999-1.7949829-1.0848999-2.9785156c0-1.2709961,0.4976807-2.3164063,1.4925537-3.1362915   c0.994873-0.8198242,2.3822021-1.3170166,4.1619873-1.4924927V15h1.8015747v1.9593506   c2.0073853,0.0875244,3.8220825,0.4910889,5.4440918,1.2097778l-1.236084,3.0771484   c-1.3676147-0.5609131-2.7701416-0.902832-4.2080078-1.0256958v3.8792114   c1.7094727,0.6575317,2.9258423,1.2275391,3.6491089,1.7095337s1.2537842,1.0125732,1.5911255,1.5911255   c0.3374023,0.5786133,0.5062866,1.2538452,0.5062866,2.0251465C32.6038818,30.819458,32.0996704,31.93927,31.0916138,32.7854004z"/><path d="M23.359436,21.6407471c0,0.3859253,0.1334839,0.7035522,0.401062,0.9533691   c0.2675781,0.2498779,0.6989746,0.5062866,1.2952881,0.7692871v-3.090271   C23.9248657,20.4395752,23.359436,20.895752,23.359436,21.6407471z"/><path d="M26.8573608,27.9002075v3.274353c1.1920776-0.2018433,1.7883911-0.71875,1.7883911-1.5517578   c0-0.3681641-0.149231-0.6791992-0.4471436-0.9335938C27.9007568,28.4347534,27.4536133,28.1717529,26.8573608,27.9002075z"/><path d="M26,2C12.7699585,2,2,12.7699585,2,26c0,13.2299805,10.7699585,24,24,24c13.2399902,0,24-10.7700195,24-24   C50,12.7699585,39.2399902,2,26,2z M26.0027466,45c-10.4765625,0-19-8.5234375-19-19s8.5234375-19,19-19s19,8.5234375,19,19   S36.4793091,45,26.0027466,45z"/></g></svg>