<svg xmlns="http://www.w3.org/2000/svg" viewBox="0 0 50.34 63.8"><defs><style>.cls-1{fill:#4b4b4b;fill-rule:evenodd;}</style></defs><title>Asset 10</title><g id="Layer_2" data-name="Layer 2"><g id="Layer_1-2" data-name="Layer 1"><g id="ime_keyboard_light_2" data-name="ime_keyboard_light 2"><g id="Friends_Icon" data-name="Friends Icon"><path class="cls-1" d="M17.06,11.22a13.21,13.21,0,0,0,.54,1.24,6,6,0,0,0,.69,1.09A9.1,9.1,0,0,0,19.63,15a8.41,8.41,0,0,0,1.58,1.09,8,8,0,0,0,1.83.69,8.49,8.49,0,0,0,2.08.25,8.1,8.1,0,0,0,2-.25A9.12,9.12,0,0,0,29,16.07,7.82,7.82,0,0,0,30.6,15a9.13,9.13,0,0,0,1.33-1.43,6.06,6.06,0,0,0,.69-1.09,8.15,8.15,0,0,0,.49-1.24q.2-.64.35-1.33a6.56,6.56,0,0,0,.15-1.38,8.7,8.7,0,0,0,0-.94,4.38,4.38,0,0,0-.2-.89l-.3-.89c-.1-.3-.18-.58-.25-.84a10.69,10.69,0,0,0-1.38-2,8.89,8.89,0,0,0-1.78-1.53,9.89,9.89,0,0,0-2.13-1A7.37,7.37,0,0,0,25.11,0a7.8,7.8,0,0,0-2.47.4,9.5,9.5,0,0,0-2.18,1A8.78,8.78,0,0,0,18.69,3a7.84,7.84,0,0,0-1.29,2,6.2,6.2,0,0,0-.35.84,8.62,8.62,0,0,0-.25.89,8,8,0,0,0-.15.89,8.34,8.34,0,0,0,0,.94,9.76,9.76,0,0,0,.1,1.38A6,6,0,0,0,17.06,11.22Zm18,4.65a3.34,3.34,0,0,0,.25.49,1.34,1.34,0,0,0,.35.4.37.37,0,0,0,.49,0h.25a3.14,3.14,0,0,1,0,.31,2.37,2.37,0,0,1,.44,0l.49.1c.16,0,.49-.46.49-.46h.67a6.65,6.65,0,0,0,2.73-.56,7.15,7.15,0,0,0,2.18-1.48A7,7,0,0,0,45,12.53a6.76,6.76,0,0,0,.56-2.69A6.66,6.66,0,0,0,45,7.11,7.79,7.79,0,0,0,43.5,4.88a6.79,6.79,0,0,0-2.18-1.53,6.67,6.67,0,0,0-2.73-.56h-.52a6.06,6.06,0,0,1-.3-1h-.2c-.2.68-.38.73-.54.82a1.68,1.68,0,0,0-.45.4,1.94,1.94,0,0,0-.3.49c-.07.17-.1.35-.17.54v.49c.07.07.09.1.12.1s0,0,0,.1c.06.26.15.56.25.89a5.42,5.42,0,0,1,.2.94c0,.3.06.61.1.94s0,.66,0,1a13,13,0,0,1-.1,1.58,11.76,11.76,0,0,1-.3,1.53A10.6,10.6,0,0,1,36,13.05a13.57,13.57,0,0,1-.69,1.38l-.18.1v.1s0,.12,0,.15a.38.38,0,0,1,0,.15c0,.07,0,.13-.94.2v.3C35,15.56,35,15.71,35.1,15.87ZM6.57,14.61A8.33,8.33,0,0,0,9,16.2a7.12,7.12,0,0,0,2.93.6h.38s.28.49.44.46l.44-.1a2.12,2.12,0,0,1,.49,0,.42.42,0,0,0,.15-.31H14c.13.15.28.06.44,0a1.14,1.14,0,0,0,.4-.4,3.54,3.54,0,0,0,.25-.49,1.23,1.23,0,0,0,.1-.45.82.82,0,0,0,0-.25.75.75,0,0,1,0-.2.39.39,0,0,0,0-.15.42.42,0,0,1,0-.2l.09-.1v-.1a4.22,4.22,0,0,1-.88-1.38,10.33,10.33,0,0,1-.5-1.43q-.2-.74-.35-1.53a8.54,8.54,0,0,1-.15-1.58,9.74,9.74,0,0,1,0-1,7.86,7.86,0,0,1,.15-.94c.07-.3.13-.61.2-.94a1.43,1.43,0,0,1,.47-.89v-.2S14,4.43,14,4.4s0-.06-.88-.1V4.05c.93-.2.89-.38.83-.54a2,2,0,0,0-.3-.49,1.73,1.73,0,0,0-.45-.4c-.17-.1-.35-.15-.54.18h-.2c-.07-.32-.12-.34-.15-.37a5.44,5.44,0,0,1-.15-.63h-.28A7.14,7.14,0,0,0,9,2.39a7.95,7.95,0,0,0-4,4,7.14,7.14,0,0,0-.6,2.93,7.25,7.25,0,0,0,.6,2.88A7.1,7.1,0,0,0,6.57,14.61Zm43.54,8.16a2.74,2.74,0,0,0-.71-1.06,3.67,3.67,0,0,0-1-.68,3.14,3.14,0,0,0-1.23-.24H43.72a2.09,2.09,0,0,0-.66.1,1,1,0,0,0-.47.34,3,3,0,0,0-.33.53,1.52,1.52,0,0,0-.14.67V22l-.44.1-.56,0v.15s.63.28.66.45.06.31.1.45a.54.54,0,0,0,.24.4v.69l-1,16v.59c-.74.33-.82.66-.92,1a3.65,3.65,0,0,1-.4.89,6.15,6.15,0,0,1-.59.79q-.35.4-.74.79a2.35,2.35,0,0,1-.45.35l-.49.3a3.39,3.39,0,0,1-.49.25,2.78,2.78,0,0,0-.54.51h-.37v.1a.57.57,0,0,0-.36.15,3,3,0,0,0-.32.3,1.18,1.18,0,0,0-.23.4,1.3,1.3,0,0,0-.09.45v-.11l-1,9v.2a1,1,0,0,1,.54.59,3,3,0,0,0,.35.54,1,1,0,0,0,.54.35,2.68,2.68,0,0,0,.64.05h5a3.46,3.46,0,0,0,.74-.05,1.73,1.73,0,0,0,.64-.35,2.15,2.15,0,0,0,.5-.59.58.58,0,0,0,0-.74v-.4l1-14.63v-.1a1.08,1.08,0,0,0,.63-.49L45,40a.91.91,0,0,1,.4-.3.52.52,0,0,1,.54,0H47a2.12,2.12,0,0,0,.76-.14,1.71,1.71,0,0,0,.62-.39,2.73,2.73,0,0,0,.43-.58,2.88,2.88,0,0,0,.28-.72v-.19l1.23-13.7A3.7,3.7,0,0,0,50.11,22.77Zm-35,24h0l-.19-.38L14.73,46a.64.64,0,0,0-.29-.29l-.38-.19c-.06,0-.1,0-.1,0s0,0-.1,0a4.37,4.37,0,0,1-1.3-.63,6.35,6.35,0,0,1-1.11-1,4.9,4.9,0,0,1-.82-1.25,8.1,8.1,0,0,1-.53-1.49v-.37l-.42-.49L8.31,24.32c0-.06,0-.1,0-.1a.65.65,0,0,1-.14,0V24s.11-.26.14-.4a1.65,1.65,0,0,0,0-.4,1.58,1.58,0,0,1,0-.4c0-.13.08-.3.76-.49V22l-1-.1v-.1c.49-.26.44-.49.34-.69a2.13,2.13,0,0,0-.4-.54,1.41,1.41,0,0,0-.54-.35c-.2-.06-.4-.1-.59.53H3.36A1,1,0,0,0,2,20.42,3,3,0,0,0,.25,22.2,3.69,3.69,0,0,0,0,23.53L1.19,37.47l.1.4a1.46,1.46,0,0,0,.2.74,1.56,1.56,0,0,0,.49.54,3.92,3.92,0,0,0,.64.35,6.74,6.74,0,0,1,.74.29H4.73a1.25,1.25,0,0,1,.45.1,1.36,1.36,0,0,1,.45.29,1.6,1.6,0,0,1,.3.39,4.07,4.07,0,0,1,.2.49v.19L7.2,55.74l.1.29a1.43,1.43,0,0,0,.2.73,2.11,2.11,0,0,0,.5.59,1.72,1.72,0,0,0,.64.34,3.1,3.1,0,0,0,.84.1h5a2.2,2.2,0,0,0,.69-.1,1.47,1.47,0,0,0,.89-.88,1.86,1.86,0,0,0,.1-.59V55.8h-.49Zm20.38-4.2a4.46,4.46,0,0,0,.79-.44,1.7,1.7,0,0,0,.54-.64,3.46,3.46,0,0,0,.3-.88v-.2l1.38-15.94A3.67,3.67,0,0,0,38.2,23a3.72,3.72,0,0,0-3.44-2.25H15.48a3.72,3.72,0,0,0-1.48.29,4.35,4.35,0,0,0-1.23.78A3.34,3.34,0,0,0,11.93,23a3.66,3.66,0,0,0-.3,1.47l1.48,15.74v.49a2.69,2.69,0,0,0,.29.83,2.4,2.4,0,0,0,.54.64,2.46,2.46,0,0,0,.74.44,2.51,2.51,0,0,0,.89.15h.84s.36-.26.49-.23a1.15,1.15,0,0,1,.4.2,3.3,3.3,0,0,1,.35.3,1.29,1.29,0,0,0,.47.35v.15c-.22,0-.2.07-.17.1s0,.07-.83.1v.35l2,16.71v.4a2,2,0,0,1,.56.79,2.17,2.17,0,0,0,.54.69,2.46,2.46,0,0,0,.74.45,5.15,5.15,0,0,1,.89.66h6.53a5.09,5.09,0,0,1,.89-.66,1.94,1.94,0,0,0,.69-.45A5,5,0,0,0,30.5,62a4.67,4.67,0,0,1,.61-.84v-.49l1-16.61v-.44a.27.27,0,0,0,.17-.1.2.2,0,0,0,0-.15,1.29,1.29,0,0,1,.25-.35,3.15,3.15,0,0,1,.35-.3,1.12,1.12,0,0,1,.4-.2c.13,0,.26,0,.4.23h.94A2.06,2.06,0,0,0,35.49,42.6Z"/></g></g></g></g></svg>