<svg fill="#000000" xmlns="http://www.w3.org/2000/svg" xmlns:xlink="http://www.w3.org/1999/xlink" version="1.1" x="0px" y="0px" viewBox="0 0 100 100" style="enable-background:new 0 0 100 100;" xml:space="preserve"><g><path d="M95,93.5c-0.1-0.4-1.6-8.8-7.9-17.3C81.2,68.4,70,59,50,59s-31.2,9.4-37,17.2C6.6,84.8,5.1,93.2,5,93.5   c-0.1,0.4,0,0.7,0.3,1c0.2,0.3,0.6,0.4,1,0.4h87.5c0.4,0,0.7-0.2,1-0.4C94.9,94.3,95,93.9,95,93.5z"/><path d="M51.2,60.1c0-0.3-1.1-8.3-5.6-17.6c-2.9-6-7.7-13.3-15.3-19.1c4.6-9,16.6-15.9,16.8-16c0.5-0.3,0.8-1,0.5-1.5   c-0.2-0.6-0.8-0.9-1.4-0.8C29.7,9.1,24.7,16,23.2,19c-0.3-0.1-0.6-0.3-0.9-0.4C24.5,14,32.9,9,36.1,7.4c0.5-0.3,0.8-0.8,0.7-1.4   s-0.6-1-1.2-1c-13.8,0-17.5,8.8-18.4,11.9c-2.7,0.2-9.6,2-12.2,14.6c-0.1,0.6,0.2,1.2,0.8,1.4C6,33,6.1,33,6.2,33   c0.4,0,0.9-0.2,1.1-0.7c0-0.1,1.8-3.4,5.2-6C9.4,29.9,6.4,35.6,5,44.8c-0.1,0.6,0.3,1.2,0.9,1.4c0.1,0,0.2,0,0.3,0   c0.5,0,1-0.3,1.2-0.8c0.1-0.1,5.2-14.2,17.7-17.1c5.2,7.4,11.2,18.9,12.3,33.1c0,0.7,0.6,1.2,1.2,1.2c0,0,0.1,0,0.1,0   c0.1,0,0.1,0,0.2,0c3.5-0.7,7.2-1.1,11.1-1.1c0.4,0,0.7-0.2,0.9-0.4C51.2,60.8,51.3,60.5,51.2,60.1z"/><path d="M73.1,5.1C61.1,5.1,51.2,15,51.2,27s9.8,21.9,21.9,21.9S95,39.1,95,27S85.2,5.1,73.1,5.1z"/></g></svg>