<svg width='200' height='200' fill="#000000" xmlns="http://www.w3.org/2000/svg" xmlns:xlink="http://www.w3.org/1999/xlink" version="1.1" x="0px" y="0px" viewBox="206 206 100 100" enable-background="new 206 206 100 100" xml:space="preserve"><g><path d="M301.974,259.123c-0.352-12.255-5.22-23.875-13.719-32.732c-8.497-8.857-19.896-14.207-32.1-15.066h-0.002   c-0.072-0.006-0.143-0.002-0.213,0.004c-0.008,0.002-0.019,0.002-0.028,0.002c-0.067,0.011-0.135,0.026-0.2,0.045   c-0.009,0.004-0.017,0.006-0.026,0.009c-0.067,0.023-0.13,0.052-0.191,0.084c-0.006,0.004-0.013,0.006-0.021,0.011   c-0.063,0.037-0.124,0.08-0.18,0.128c0,0.002-0.004,0.002-0.006,0.004c0,0.002-0.002,0.002-0.002,0.004   c-0.059,0.05-0.11,0.106-0.158,0.167c0,0-0.002,0.002-0.002,0.004c-0.046,0.059-0.087,0.124-0.122,0.193c0,0,0,0,0,0.002   c-0.035,0.067-0.063,0.139-0.083,0.215c0,0,0,0.002-0.002,0.002c-0.02,0.074-0.033,0.152-0.039,0.229   c-0.104,1.527-0.243,3.464-0.397,5.58c-0.612-0.028-1.229-0.041-1.852-0.041c-23.485,0-42.591,19.106-42.591,42.592   c0,23.487,19.106,42.593,42.591,42.593s42.593-19.106,42.593-42.593c0-0.035-0.002-0.074-0.002-0.108h5.561   c0.002,0,0.002,0,0.005,0c0.658,0,1.192-0.534,1.192-1.193C301.981,259.214,301.979,259.169,301.974,259.123z M252.632,240.403   c11.117,0,20.158,9.043,20.158,20.159c0,11.114-9.041,20.158-20.158,20.158c-11.115,0-20.158-9.044-20.158-20.158   C232.473,249.446,241.517,240.403,252.632,240.403z M278.444,258.066c-1.158-12.145-10.691-21.862-22.802-23.259   c0.34-4.576,1.11-14.975,1.535-21.006c23.233,2.214,41.158,20.945,42.366,44.265H278.444L278.444,258.066z"/><path d="M266.433,220.323c-3.241,0-5.879,2.637-5.879,5.879s2.638,5.879,5.879,5.879c3.242,0,5.88-2.637,5.88-5.879   S269.675,220.323,266.433,220.323z"/><path d="M282.196,249.36c0,3.242,2.637,5.879,5.879,5.879s5.88-2.637,5.88-5.879c0-3.243-2.638-5.88-5.88-5.88   S282.196,246.117,282.196,249.36z"/><path d="M252.633,279.199c10.277,0,18.638-8.361,18.638-18.638c0-10.277-8.361-18.638-18.638-18.638   c-10.277,0-18.638,8.361-18.638,18.638C233.994,270.838,242.356,279.199,252.633,279.199z M252.633,244.309   c8.961,0,16.252,7.291,16.252,16.252c0,8.961-7.291,16.252-16.252,16.252c-8.962,0-16.252-7.291-16.252-16.252   C236.38,251.599,243.671,244.309,252.633,244.309z"/><path d="M252.633,267.395c3.769,0,6.834-3.065,6.834-6.834s-3.066-6.835-6.834-6.835s-6.834,3.067-6.834,6.835   S248.864,267.395,252.633,267.395z M252.633,256.112c2.454,0,4.449,1.996,4.449,4.449s-1.996,4.449-4.449,4.449   s-4.449-1.996-4.449-4.449S250.179,256.112,252.633,256.112z"/><path d="M252.633,253.061c2.237,0,4.057-1.82,4.057-4.057s-1.82-4.057-4.057-4.057s-4.057,1.82-4.057,4.057   S250.395,253.061,252.633,253.061z M252.633,247.333c0.921,0,1.671,0.75,1.671,1.671s-0.75,1.671-1.671,1.671   c-0.922,0-1.671-0.75-1.671-1.671S251.711,247.333,252.633,247.333z"/><path d="M245.698,256.99c0-2.237-1.82-4.057-4.057-4.057c-2.237,0-4.057,1.82-4.057,4.057c0,2.236,1.82,4.057,4.057,4.057   C243.878,261.047,245.698,259.227,245.698,256.99z M239.97,256.99c0-0.921,0.75-1.671,1.671-1.671s1.671,0.75,1.671,1.671   c0,0.922-0.75,1.671-1.671,1.671S239.97,257.912,239.97,256.99z"/><path d="M245.84,265.853c-2.237,0-4.057,1.82-4.057,4.058c0,2.236,1.82,4.057,4.057,4.057s4.057-1.82,4.057-4.057   C249.897,267.674,248.076,265.853,245.84,265.853z M245.84,271.582c-0.922,0-1.672-0.75-1.672-1.671   c0-0.922,0.75-1.672,1.672-1.672c0.921,0,1.671,0.75,1.671,1.672C247.511,270.832,246.761,271.582,245.84,271.582z"/><path d="M259.425,265.853c-2.237,0-4.057,1.82-4.057,4.058c0,2.236,1.819,4.057,4.057,4.057s4.058-1.82,4.058-4.057   C263.483,267.674,261.662,265.853,259.425,265.853z M259.425,271.582c-0.922,0-1.671-0.75-1.671-1.671   c0-0.922,0.749-1.672,1.671-1.672s1.672,0.75,1.672,1.672C261.097,270.832,260.347,271.582,259.425,271.582z"/><path d="M263.623,261.047c2.237,0,4.057-1.82,4.057-4.057c0-2.237-1.819-4.057-4.057-4.057c-2.236,0-4.057,1.82-4.057,4.057   C259.567,259.226,261.386,261.047,263.623,261.047z M263.623,255.319c0.922,0,1.672,0.75,1.672,1.671   c0,0.921-0.75,1.671-1.672,1.671c-0.921,0-1.671-0.75-1.671-1.671C261.952,256.068,262.701,255.319,263.623,255.319z"/></g></svg>