<svg fill="#000000" xmlns="http://www.w3.org/2000/svg" xmlns:xlink="http://www.w3.org/1999/xlink" version="1.1" x="0px" y="0px" viewBox="0 0 90 20" enable-background="new 0 0 90 20" xml:space="preserve"><path d="M80.348,2.13c-4.346,0-7.87,3.523-7.87,7.87s3.524,7.87,7.87,7.87c4.347,0,7.871-3.523,7.871-7.87S84.694,2.13,80.348,2.13z   M80.348,15.769c-3.186,0-5.768-2.582-5.768-5.768c0-3.187,2.582-5.769,5.768-5.769s5.769,2.583,5.769,5.769  C86.116,13.187,83.533,15.769,80.348,15.769z"/><path d="M62.598,2.13c-4.346,0-7.87,3.523-7.87,7.87s3.524,7.87,7.87,7.87c4.347,0,7.871-3.523,7.871-7.87S66.944,2.13,62.598,2.13z   M62.598,15.769c-3.186,0-5.768-2.582-5.768-5.768c0-3.187,2.582-5.769,5.768-5.769s5.769,2.583,5.769,5.769  C68.366,13.187,65.783,15.769,62.598,15.769z"/><path d="M44.848,2.13c-4.346,0-7.87,3.523-7.87,7.87s3.524,7.87,7.87,7.87c4.347,0,7.871-3.523,7.871-7.87S49.194,2.13,44.848,2.13z   M44.848,15.769c-3.186,0-5.768-2.582-5.768-5.768c0-3.187,2.583-5.769,5.768-5.769s5.769,2.583,5.769,5.769  C50.616,13.187,48.033,15.769,44.848,15.769z"/><circle cx="9.348" cy="10" r="7.87"/><circle cx="27.098" cy="10" r="7.87"/></svg>