<svg xmlns="http://www.w3.org/2000/svg" viewBox="0 0 60.78 60.79"><defs><style>.cls-1{fill:#4b4b4b;fill-rule:evenodd;}</style></defs><title>Asset 8</title><g id="Layer_2" data-name="Layer 2"><g id="Layer_1-2" data-name="Layer 1"><g id="ime_keyboard_light_2" data-name="ime_keyboard_light 2"><g id="Dashboard_Icon" data-name="Dashboard Icon"><path class="cls-1" d="M30.39,0A30.4,30.4,0,1,0,60.78,30.39,30.39,30.39,0,0,0,30.39,0Zm0,8a2.64,2.64,0,1,1-2.64,2.64A2.64,2.64,0,0,1,30.41,8ZM15.6,21.85a2.64,2.64,0,1,1-1-3.61A2.64,2.64,0,0,1,15.6,21.85Zm6.26-6.26a2.64,2.64,0,1,1,1-3.61A2.64,2.64,0,0,1,21.86,15.59Zm6.71,36.07a6,6,0,0,1-4.48-4.19,5.71,5.71,0,0,1,2.06-6.08l.26-.2a3.53,3.53,0,0,0,1.34-2.74V28.79h0a2.42,2.42,0,0,1,2.5-2.33,2.45,2.45,0,0,1,2.48,2v10a3.52,3.52,0,0,0,1.34,2.74l.27.2a5.76,5.76,0,0,1,2.27,4.54C36.63,49.72,32.82,52.67,28.57,51.66Zm14-37a2.64,2.64,0,1,1-1-3.61A2.64,2.64,0,0,1,42.56,14.63Zm6.26,8.19a2.64,2.64,0,1,1,1-3.61A2.65,2.65,0,0,1,48.82,22.82Z"/></g></g></g></g></svg>