<svg fill="#000000" xmlns="http://www.w3.org/2000/svg" xmlns:xlink="http://www.w3.org/1999/xlink" version="1.1" x="0px" y="0px" viewBox="0 0 100 100" enable-background="new 0 0 100 100" xml:space="preserve"><g><path d="M77.68,19.555h-6.379v-8.455H50.032l-3.099-0.005H28.699v8.456H22.32c1.939,9.718,4.86,31.229-4.389,41.951   c-2.582,2.994-3.545,5.537-2.859,7.559c1.369,4.036,9.088,7.882,20.648,10.288c6.244,1.299,11.044,3.522,14.281,6.616   c3.24-3.09,8.037-5.312,14.278-6.611c11.56-2.405,19.28-6.251,20.648-10.287c0.685-2.021-0.276-4.564-2.859-7.558   C72.821,50.785,75.741,29.273,77.68,19.555z"/><path d="M85.001,58.977c-10.689-12.394-2.476-43.294-2.476-43.294h-7.352V7.226H50.032V7.221H24.826v8.456h-7.352   c0,0,8.214,30.901-2.475,43.294C4.309,71.366,16.297,79.263,34.931,83.14c12.441,2.588,14.68,8.305,15.037,9.633l0.063,0.005   c0.358-1.329,2.597-7.045,15.037-9.633C83.703,79.268,95.691,71.371,85.001,58.977z M64.595,80.87   c-6.297,1.31-11.018,3.573-14.033,6.724l-0.56,0.586l-0.56-0.586c-3.013-3.154-7.737-5.418-14.037-6.728   c-12.465-2.594-20.206-6.61-21.8-11.308c-0.874-2.578,0.186-5.628,3.153-9.068c9.105-10.557,5.728-32.578,3.855-41.556   l-0.196-0.932h6.732V9.545l45.7,0.005v8.456h6.733l-0.195,0.933c-1.875,8.978-5.251,31,3.854,41.556   c2.966,3.439,4.028,6.49,3.153,9.068C84.801,74.261,77.06,78.276,64.595,80.87z"/></g></svg>