<svg fill="#000000" xmlns="http://www.w3.org/2000/svg" viewBox="0 0 437.03562 414.35812" version="1.1" x="0px" y="0px"><g transform="translate(-165.363,-342.51957)"><path style="" d="m 428.397,342.5457 c -4.614,0.2553 -9.065,2.1986 -12.379,5.9065 l -14.806,16.4239 102.591,92.0739 14.726,-16.3434 c 6.67,-7.415 6.039,-18.8581 -1.374,-25.4861 l -75.65,-67.9629 c -3.707,-3.3361 -8.494,-4.8605 -13.107,-4.6119 z m -25.729,39.2406 -94.987,105.7473 84.145,75.5684 23.545,-26.2953 c 4.763,-5.3026 12.982,-5.7347 18.285,-0.9698 l 129.777,116.5079 c 8.451,7.6226 21.475,8.8243 30.341,1.699 11.267,-9.1133 11.367,-25.5922 1.049,-34.8715 L 464.237,501.7744 c -5.302,-4.6811 -5.815,-12.7798 -1.05,-18.1237 l 23.626,-26.2952 -84.146,-75.5684 z m -111.897,106.152 -14.724,16.4243 c -6.67,7.415 -6.121,18.777 1.294,25.4048 l 75.73,68.0443 c 7.415,6.6695 18.858,6.0399 25.487,-1.3745 l 14.725,-16.4245 -102.512,-92.0736 z m -40.454,146.2822 c -14.581,0 -26.376,11.7942 -26.376,26.3759 l 0,23.14 226.706,0 0,-23.14 -0.07,0 c 0,-14.5817 -11.794,-26.3759 -26.376,-26.3759 l -173.872,0 z m -84.954,73.1413 0,27.2658 c 0,12.262 9.907,22.2501 22.169,22.2501 l 299.361,0 c 12.263,0 22.17,-9.9881 22.17,-22.2501 l 0,-27.2658 -343.7,0 z" fill="#000000"/></g></svg>