<svg fill="#000000" xmlns="http://www.w3.org/2000/svg" xmlns:xlink="http://www.w3.org/1999/xlink" version="1.1" x="0px" y="0px" viewBox="0 0 126 126" enable-background="new 0 0 126 126" xml:space="preserve"><g><path d="M67.797,98.4c0-4.174-3.041-7.631-7.023-8.32l-0.002-0.021l-1.559-3.985l1.696-2.251l12.522-35.879   c-0.994-0.367-1.997-0.707-3.013-0.959l-5.967,6.008l-5.788-6.072c-0.015,0.006-0.033,0.005-0.057,0.012   c-6.982,2.047-15.615,8.113-15.615,8.113c-3.124,2.23-6.135,4.684-8.896,7.529c-7.979,7.834-13.623,16.844-17.338,28.842   c-1.009,3.252-1.154,7.85,0.957,10.521c2.624,3.314,4.098,5.045,21.094,5.045c0-0.039,20.521-0.117,20.521-0.117   C64.001,106.865,67.797,103.068,67.797,98.4z M49.058,104.35c-2.567,0.012-5.133,0.025-7.058,0.037   c-0.968,0.008-1.771,0.014-2.335,0.02c-0.204,0.002-0.51,0.006-0.856,0.045v-0.027c-15.86,0-17.006-1.447-19.085-4.074   c-1.439-1.824-1.353-5.492-0.521-8.176c3.456-11.162,8.758-19.988,16.729-27.816c2.396-2.471,5.192-4.832,8.515-7.205l0.557-0.385   l13.328,34.08c0.281,0.898,1.045,1.588,2.006,1.754c2.839,0.492,4.9,2.932,4.9,5.799c0,3.258-2.65,5.904-5.918,5.904   C59.32,104.305,54.189,104.324,49.058,104.35z"/><path d="M95.24,65.838c-4.228-5.432-10.439-12.273-19.456-16.859l-6.908,43.904c0,0,1.134,3.461,1.134,5.518   c0,5.887-4.79,10.678-10.68,10.678H39.942c0,0,0,4.041,0,11.588c0,1.461,0.069,2.689,0.179,3.73h48.673   c0.104-1.041,0.172-2.27,0.172-3.73V90.779c2.19,7.275,3.917,17.555,3.917,31.91c0,0.584,0.062,1.156,0.173,1.707h16.729   c0.111-0.551,0.17-1.123,0.17-1.707C109.954,89.898,101.597,73.539,95.24,65.838z"/><circle cx="64.504" cy="24.003" r="22.399"/></g></svg>