<svg fill="#000000" xmlns:dc="http://purl.org/dc/elements/1.1/" xmlns:cc="http://creativecommons.org/ns#" xmlns:rdf="http://www.w3.org/1999/02/22-rdf-syntax-ns#" xmlns:svg="http://www.w3.org/2000/svg" xmlns="http://www.w3.org/2000/svg" xmlns:sodipodi="http://sodipodi.sourceforge.net/DTD/sodipodi-0.dtd" xmlns:inkscape="http://www.inkscape.org/namespaces/inkscape" viewBox="0 0 361.51067 359.22484" version="1.1" x="0px" y="0px"><g transform="translate(-249.27492,-385.34615)"><path style="" d="m 467.48758,385.42199 c -5.274,-0.292 -10.657,0.256 -15.939,1.699 l -145.069,40.45402 c -21.21,5.924 -35.877,25.252 -36.084,47.332 l -0.81,87.94698 c -15.452,8.16 -23.78,26.211 -18.933,43.61 l 16.263,58.172 c 3.935,14.086 15.504,23.926 28.884,26.619 0.04,0.704 0.04,1.361 0.256,2.021 l 7.362,26.295 c 5.095,18.185 23.964,28.8 42.315,23.706 l 17.233,-4.855 c 18.185,-5.094 29.003,-23.926 23.949,-42.153 l -6.714,-24.03 163.515,-45.633 0,21.037 c 0,2.362 1.21,4.502 3.157,5.745 l 44.499,28.48 -44.661,30.097 c -1.863,1.243 -2.997,3.383 -2.997,5.664 l 0,12.945 -31.069,0 0,13.997 75.974,0 0,-13.997 -31.151,0 0,-9.223 50.245,-34.063 c 1.907,-1.283 3.073,-3.504 3.073,-5.825 -0.03,-2.319 -1.21,-4.421 -3.157,-5.664 l -50.163,-31.958 0,-21.118 39.807,-11.084 -0.73,-2.184 c -0.106,-0.539 -0.371,-0.996 -0.568,-1.7 10.357,-9.278 15.223,-23.899 11.246,-38.107 l -16.262,-58.173 c -4.805,-17.15098 -20.758,-27.96898 -37.784,-27.34698 l -46.36,-75.164 c -8.607,-14.10602 -23.499,-22.63902 -39.323,-23.54402 z m -4.048,22.49302 c 14.25,1.287 27.722,10.085 35.925,24.191 l 32.767,56.636 -241.835,67.47798 -1.29,-65.45498 c -0.541,-21.748 12.138,-40.291 30.987,-45.552 l 129.13,-36.004 c 4.743,-1.327 9.571,-1.725 14.321,-1.291 z m 79.857,102.99498 c 8.745,1.164 16.417,7.415 18.933,16.425 3.398,12.138 -3.683,24.639 -15.697,27.994 -12.096,3.398 -24.597,-3.642 -27.993,-15.777 -3.315,-12.013 3.682,-24.597 15.777,-27.994 3.004,-0.842 6.066,-1.036 8.98,-0.645 z m -235.443,65.698 c 8.736,1.163 16.366,7.415 18.852,16.424 3.397,12.138 -3.643,24.64 -15.616,27.995 -12.137,3.398 -24.638,-3.643 -27.994,-15.777 -3.354,-12.013 3.642,-24.598 15.777,-27.995 2.99,-0.838 6.069,-1.035 8.981,-0.644 z m 186.09,12.137 7.039,25.324 -120.068,33.496 -7.12,-25.324 120.149,-33.496 z m 54.369,67.963 0,13.512 13.755,-3.803 0,-0.97 -13.755,-8.738 z m 14.483,10.194 -16.505,4.612 c -1.327,0.371 -2.071,1.71 -1.699,2.993 0.372,1.327 1.71,2.071 2.993,1.699 l 16.587,-4.612 c 1.283,-0.372 2.07,-1.71 1.698,-2.993 -0.371,-1.327 -1.75,-2.071 -3.074,-1.699 z m -0.729,6.069 -13.755,3.881 0,1.783 13.755,-3.882 0,-1.782 z m 0.729,2.267 -16.505,4.692 c -1.283,0.373 -2.071,1.711 -1.699,2.994 0.372,1.327 1.71,2.071 2.993,1.7 l 16.587,-4.612 c 1.283,-0.373 2.07,-1.791 1.698,-3.074 -0.371,-1.283 -1.75,-2.071 -3.074,-1.7 z m -0.729,6.068 -13.755,3.882 0,1.782 13.755,-3.88 0,-1.784 z m 0.729,2.344 -16.505,4.612 c -1.283,0.372 -2.071,1.71 -1.699,2.993 0.372,1.284 1.71,2.071 2.993,1.7 l 16.587,-4.613 c 1.283,-0.371 2.07,-1.71 1.698,-2.993 -0.371,-1.284 -1.75,-2.07 -3.074,-1.699 z m -0.729,5.987 -13.755,3.882 0,1.783 13.755,-3.881 0,-1.784 z m 0.729,2.345 -16.505,4.612 c -1.283,0.372 -2.071,1.79 -1.699,3.073 0.372,1.284 1.71,2.071 2.993,1.7 l 16.587,-4.693 c 1.283,-0.372 2.07,-1.711 1.698,-2.994 -0.371,-1.283 -1.75,-2.071 -3.074,-1.698 z m -0.729,6.068 -13.755,3.803 0,6.554 13.755,-9.304 0,-1.054 z" fill="#000000" fill-opacity="1"/></g></svg>