<svg fill="#000000" xmlns="http://www.w3.org/2000/svg" xmlns:xlink="http://www.w3.org/1999/xlink" version="1.1" x="0px" y="0px" viewBox="0 0 50.4 50.4" enable-background="new 0 0 50.4 50.4" xml:space="preserve"><g><path stroke="#000000" stroke-width="2.1702" d="M20.456,6.236" fill="#000000"/><path stroke="#000000" stroke-width="2.1702" d="M20.456,10.576" fill="#000000"/><path d="M49.213,26.914c-0.313-0.572-1.565-2.918-5.24-5.378c-2.792-1.869-5.493-2.358-6.668-2.367   c-1.93-0.016-3.419,0.392-3.852,2.138c-0.421,1.703,1.548,2.776,2.987,3.5l-4.98,2.142h-9.557v2.012h-2.894v-2.012H6.601   l2.145-4.866l-0.656-2.17l-3.084,7.073L0,30.012l0.008,12.888h2.261l-0.002,4.22c0,1.811,1.462,3.281,3.274,3.281   c1.811,0,3.28-1.471,3.28-3.281l-0.004-4.22h21.867l-0.003,4.22c0,1.811,1.468,3.281,3.276,3.281c1.812,0,3.279-1.471,3.279-3.281   l-0.003-4.22h2.259l0.011-12.888l-1.738-1.051l3.419-1.471c1.229,0.92,2.579,2.625,3.21,3.597c0,0,0.341,0.626,0.567,1.418   c0.202,0.707,0.309,1.712,0.346,2.106v13.221c0,1.398,1.133,2.531,2.532,2.531c1.398,0,2.532-1.133,2.532-2.531V32.098   C50.372,30.99,50.237,28.781,49.213,26.914z M5.46,37.21c-1.519,0-2.743-1.229-2.743-2.754c0-1.515,1.225-2.744,2.743-2.744   c1.516,0,2.749,1.229,2.749,2.744C8.209,35.98,6.976,37.21,5.46,37.21z M12.179,38.259l0.003-4.941   c0-0.685,0.553-1.239,1.235-1.239l13.075-0.024c0.684,0,1.237,0.562,1.237,1.242l0.003,4.945L12.179,38.259z M34.041,37.21   c-1.515,0-2.745-1.229-2.745-2.754c0-1.515,1.23-2.744,2.745-2.744c1.517,0,2.745,1.229,2.745,2.744   C36.786,35.98,35.558,37.21,34.041,37.21z"/></g><g><path d="M31.833,8.262h-9.93V5.754h-2.894v2.508H8.701c-2.105,0-3.662,1.379-2.891,4.134l2.271,7.551l3.717-8.512l1.56,0.023   L8.723,22.083l0.972,3.232c0,0,4.883-1.325,10.249-1.325c5.486,0,11.001,1.325,11.001,1.325l1.105-3.509   c-0.698,0.65-1.678,0.973-2.678,0.774c-1.657-0.331-2.735-1.962-2.399-3.638c0.335-1.681,1.958-2.767,3.614-2.433   c1.232,0.245,2.135,1.203,2.387,2.364l2.04-6.477C35.404,10.113,34.274,8.262,31.833,8.262z"/></g></svg>