<svg fill="#000000" xmlns="http://www.w3.org/2000/svg" xmlns:xlink="http://www.w3.org/1999/xlink" version="1.1" x="0px" y="0px" viewBox="0 0 48 48" style="enable-background:new 0 0 48 48;" xml:space="preserve"><g><path d="M37.5,28.4c-4.2,0-7.9,2.5-9.3,6.1l-1.9-2.9L42.1,7.3c0.6-0.9,0.3-2-0.6-2.6c-0.9-0.5-2.1-0.3-2.7,0.6L24,28.1L9.3,5.3   C8.7,4.5,7.5,4.2,6.6,4.7C5.6,5.3,5.4,6.4,5.9,7.3l15.8,24.3l-1.9,2.9c-1.5-3.6-5.1-6.1-9.3-6.1c-5.5,0-10,4.3-10,9.5   s4.5,9.5,10,9.5c4.1,0,7.6-2.3,9.1-5.6c0,0,0,0,0,0l4.3-6.7l4.3,6.7c0,0,0,0,0,0c1.6,3.3,5.1,5.6,9.1,5.6c5.5,0,10-4.3,10-9.5   S43,28.4,37.5,28.4z M10.5,43.8c-3.4,0-6.1-2.6-6.1-5.8s2.7-5.8,6.1-5.8s6.1,2.6,6.1,5.8S13.9,43.8,10.5,43.8z M37.5,43.8   c-3.4,0-6.1-2.6-6.1-5.8s2.7-5.8,6.1-5.8c3.4,0,6.1,2.6,6.1,5.8S40.8,43.8,37.5,43.8z"/><g><path d="M23.2,15.8v-1.4c-1.7-0.2-3.2-1-4.6-2.1l1.8-2.1c1,0.8,1.9,1.4,2.8,1.6V9c-1.4-0.3-2.4-0.8-3-1.3c-0.6-0.6-1-1.4-1-2.4    c0-1.1,0.4-1.9,1.1-2.6C21,2,22,1.5,23.2,1.4V0.5h2.1v0.9c1.3,0.2,2.6,0.7,3.9,1.5l-1.6,2.2c-0.8-0.6-1.6-0.9-2.3-1.1v2.7    c1.4,0.3,2.5,0.8,3.1,1.4c0.7,0.6,1,1.4,1,2.5c0,1.1-0.4,1.9-1.1,2.6c-0.8,0.7-1.8,1.1-3,1.2v1.3H23.2z M23.2,4    c-0.6,0.2-0.8,0.5-0.8,1s0.3,0.9,0.8,1.1V4z M26.3,10.8c0-0.3-0.1-0.5-0.2-0.7c-0.1-0.2-0.4-0.3-0.8-0.5v2.3    C25.9,11.7,26.3,11.3,26.3,10.8z"/></g></g></svg>