<svg fill="#000000" xmlns="http://www.w3.org/2000/svg" xmlns:xlink="http://www.w3.org/1999/xlink" version="1.1" x="0px" y="0px" viewBox="0 0 32 32" enable-background="new 0 0 32 32" xml:space="preserve"><g display="none"><rect x="-135" y="-70" display="inline" fill="#000000" width="461.5" height="244"/></g><g><g><path d="M27.506,8.479H22V4.104c0-1.517-1.233-2.75-2.75-2.75h-6.5c-1.517,0-2.75,1.233-2.75,2.75v4.375H4.494L0,30.646h32    L27.506,8.479z M16.887,25.053v1.866h-1.102v-1.813c-1.015-0.018-2.064-0.341-2.676-0.789l0.421-1.201    c0.629,0.43,1.539,0.771,2.517,0.771c1.241,0,2.082-0.736,2.082-1.758c0-0.986-0.683-1.596-1.976-2.134    c-1.783-0.718-2.885-1.543-2.885-3.103c0-1.489,1.032-2.619,2.641-2.888v-1.811h1.084v1.74c1.049,0.035,1.766,0.323,2.273,0.627    l-0.438,1.184c-0.366-0.215-1.084-0.61-2.203-0.61c-1.346,0-1.854,0.825-1.854,1.543c0,0.933,0.648,1.399,2.169,2.045    c1.8,0.753,2.71,1.686,2.71,3.282C19.649,23.42,18.688,24.747,16.887,25.053z M20.5,8.479h-9V4.104c0-0.689,0.561-1.25,1.25-1.25    h6.5c0.689,0,1.25,0.561,1.25,1.25V8.479z"/></g></g><g display="none"><path display="inline" d="M16.887,25.053v1.866h-1.102v-1.813c-1.015-0.018-2.064-0.341-2.676-0.789l0.421-1.201   c0.629,0.43,1.539,0.771,2.517,0.771c1.241,0,2.082-0.736,2.082-1.758c0-0.986-0.683-1.596-1.976-2.134   c-1.783-0.718-2.885-1.543-2.885-3.103c0-1.489,1.032-2.619,2.641-2.888v-1.811h1.084v1.74c1.049,0.035,1.766,0.323,2.273,0.627   l-0.438,1.184c-0.366-0.215-1.084-0.61-2.203-0.61c-1.346,0-1.854,0.825-1.854,1.543c0,0.933,0.648,1.399,2.169,2.045   c1.8,0.753,2.71,1.686,2.71,3.282C19.649,23.42,18.688,24.747,16.887,25.053z"/><g display="inline"><path d="M26.279,9.979l3.886,19.167H1.835L5.721,9.979H10h1.5h9H22H26.279 M19.25,1.354h-6.5c-1.517,0-2.75,1.233-2.75,2.75v4.375    H4.494L0,30.646h32L27.506,8.479H22V4.104C22,2.588,20.767,1.354,19.25,1.354L19.25,1.354z M11.5,8.479V4.104    c0-0.689,0.561-1.25,1.25-1.25h6.5c0.689,0,1.25,0.561,1.25,1.25v4.375H11.5L11.5,8.479z"/></g></g><g display="none"><g display="inline"><path fill="#000000" d="M16.887,25.053v1.866h-1.102v-1.813c-1.015-0.018-2.064-0.341-2.676-0.789l0.421-1.201    c0.629,0.43,1.539,0.771,2.517,0.771c1.241,0,2.082-0.736,2.082-1.758c0-0.986-0.683-1.596-1.976-2.134    c-1.783-0.718-2.885-1.543-2.885-3.103c0-1.489,1.032-2.619,2.641-2.888v-1.811h1.084v1.74c1.049,0.035,1.766,0.323,2.273,0.627    l-0.438,1.184c-0.366-0.215-1.084-0.61-2.203-0.61c-1.346,0-1.854,0.825-1.854,1.543c0,0.933,0.648,1.399,2.169,2.045    c1.8,0.753,2.71,1.686,2.71,3.282C19.649,23.42,18.688,24.747,16.887,25.053z"/></g><g display="inline"><path fill="#000000" d="M19.126,1.933c1.459,0,2.645,1.185,2.645,2.641v4.202h5.295l4.323,21.29H0.612l4.323-21.29h5.295V4.575    c0-1.457,1.186-2.641,2.645-2.641H19.126 M11.672,8.776h8.656V4.575c0-0.662-0.539-1.201-1.202-1.201h-6.252    c-0.663,0-1.202,0.538-1.202,1.201V8.776 M19.126,1.433h-6.252c-1.734,0-3.145,1.409-3.145,3.141v3.702H4.934H4.525L4.444,8.677    l-4.323,21.29L0,30.567h0.612h30.777H32l-0.122-0.599L27.556,8.677l-0.081-0.401h-0.409h-4.795V4.575    C22.271,2.842,20.86,1.433,19.126,1.433L19.126,1.433z M12.172,8.276V4.575c0-0.386,0.315-0.701,0.702-0.701h6.252    c0.387,0,0.702,0.314,0.702,0.701v3.702H12.172L12.172,8.276z"/></g></g><g display="none"><path display="inline" fill="none" d="M20.5,4.104c0-0.689-0.561-1.25-1.25-1.25h-6.5c-0.689,0-1.25,0.561-1.25,1.25v4.375h9V4.104   z"/><path display="inline" d="M26.279,9.979H22h-1.5h-9H10H5.721L1.835,29.146h28.331L26.279,9.979z M16.887,25.053v1.866h-1.102   v-1.813c-1.015-0.018-2.064-0.341-2.676-0.789l0.421-1.201c0.629,0.43,1.539,0.771,2.517,0.771c1.241,0,2.082-0.736,2.082-1.758   c0-0.986-0.683-1.596-1.976-2.134c-1.783-0.718-2.885-1.543-2.885-3.103c0-1.489,1.032-2.619,2.641-2.888v-1.811h1.084v1.74   c1.049,0.035,1.766,0.323,2.273,0.627l-0.438,1.184c-0.366-0.215-1.084-0.61-2.203-0.61c-1.346,0-1.854,0.825-1.854,1.543   c0,0.933,0.648,1.399,2.169,2.045c1.8,0.753,2.71,1.686,2.71,3.282C19.649,23.42,18.688,24.747,16.887,25.053z"/><path display="inline" fill="#000000" d="M27.506,8.479H22V4.104c0-1.517-1.233-2.75-2.75-2.75h-6.5c-1.517,0-2.75,1.233-2.75,2.75   v4.375H4.494L0,30.646h32L27.506,8.479z M11.5,4.104c0-0.689,0.561-1.25,1.25-1.25h6.5c0.689,0,1.25,0.561,1.25,1.25v4.375h-9   V4.104z M5.721,9.979H10h1.5h9H22h4.279l3.886,19.167H1.835L5.721,9.979z"/><path display="inline" fill="#000000" d="M16.939,18.721c-1.521-0.645-2.169-1.112-2.169-2.045c0-0.718,0.508-1.543,1.854-1.543   c1.119,0,1.837,0.395,2.203,0.61l0.438-1.184c-0.507-0.304-1.224-0.592-2.273-0.627v-1.74h-1.084v1.811   c-1.609,0.27-2.641,1.399-2.641,2.888c0,1.56,1.102,2.385,2.885,3.103c1.294,0.538,1.976,1.148,1.976,2.134   c0,1.022-0.84,1.758-2.082,1.758c-0.978,0-1.888-0.341-2.517-0.771l-0.421,1.201c0.612,0.448,1.661,0.771,2.676,0.789v1.813h1.102   v-1.866c1.8-0.306,2.762-1.633,2.762-3.05C19.649,20.406,18.74,19.473,16.939,18.721z"/></g><g display="none"><path display="inline" fill="#000000" d="M16,32c8.837,0,16-7.163,16-16S24.837,0,16,0S0,7.163,0,16S7.163,32,16,32z"/><path display="inline" fill="none" d="M19.25,2.854h-6.5c-0.689,0-1.25,0.561-1.25,1.25v4.375h9V4.104   C20.5,3.415,19.939,2.854,19.25,2.854z"/><path display="inline" d="M11.5,4.104c0-0.689,0.561-1.25,1.25-1.25h6.5c0.689,0,1.25,0.561,1.25,1.25v4.375H22V4.104   c0-1.517-1.233-2.75-2.75-2.75h-6.5c-1.517,0-2.75,1.233-2.75,2.75v4.375h1.5V4.104z"/><path display="inline" fill="#000000" d="M26.688,9.479l4.089,20.167H1.223L5.312,9.479H10h1.5h9H22H26.688 M14.908,13.233   c-1.609,0.578-2.641,1.966-2.641,3.658c0,2.306,1.775,3.332,3.502,4.026c1.36,0.565,1.36,0.969,1.36,1.211   c0,0.559-0.559,0.758-1.082,0.758c-0.676,0-1.406-0.223-1.952-0.596l-1.077-0.736l-0.431,1.231l-0.421,1.201l-0.245,0.7   l0.598,0.438c0.581,0.425,1.399,0.741,2.267,0.889v0.906v1h1h1.102h1v-1v-1.095c1.682-0.597,2.762-2.049,2.762-3.821   c0-2.523-1.897-3.608-3.319-4.202c-1.559-0.661-1.559-0.907-1.559-1.124c0-0.449,0.464-0.543,0.854-0.543   c0.892,0,1.435,0.319,1.696,0.473l1.03,0.605l0.414-1.121l0.438-1.184l0.287-0.777l-0.71-0.427   c-0.546-0.328-1.136-0.549-1.788-0.668v-0.842v-1h-1h-1.084h-1v1V13.233 M27.506,8.479H22h-1.5h-9H10H4.494L0,30.646h32   L27.506,8.479L27.506,8.479z M16.047,23.887c1.241,0,2.082-0.736,2.082-1.758c0-0.986-0.683-1.596-1.976-2.134   c-1.783-0.718-2.885-1.543-2.885-3.103c0-1.489,1.032-2.619,2.641-2.888v-1.811h1.084v1.74c1.049,0.035,1.766,0.323,2.273,0.627   l-0.438,1.184c-0.366-0.215-1.084-0.61-2.203-0.61c-1.346,0-1.854,0.825-1.854,1.543c0,0.933,0.648,1.399,2.169,2.045   c1.8,0.753,2.71,1.686,2.71,3.282c0,1.418-0.961,2.744-2.762,3.05v1.866h-1.102v-1.813c-1.015-0.018-2.064-0.341-2.676-0.789   l0.421-1.201C14.159,23.546,15.069,23.887,16.047,23.887L16.047,23.887z"/><path display="inline" fill="#000000" d="M16.939,18.721c-1.521-0.645-2.169-1.112-2.169-2.045c0-0.718,0.508-1.543,1.854-1.543   c1.119,0,1.837,0.395,2.203,0.61l0.438-1.184c-0.507-0.304-1.224-0.592-2.273-0.627v-1.74h-1.084v1.811   c-1.609,0.27-2.641,1.399-2.641,2.888c0,1.56,1.102,2.385,2.885,3.103c1.294,0.538,1.976,1.148,1.976,2.134   c0,1.022-0.84,1.758-2.082,1.758c-0.978,0-1.888-0.341-2.517-0.771l-0.421,1.201c0.612,0.448,1.661,0.771,2.676,0.789v1.813h1.102   v-1.866c1.8-0.306,2.762-1.633,2.762-3.05C19.649,20.406,18.74,19.473,16.939,18.721z"/></g><g display="none"><path display="inline" fill="#000000" d="M18.295,32c8.837,0,16-7.163,16-16s-7.163-16-16-16s-16,7.163-16,16S9.459,32,18.295,32z"/><path display="inline" fill="none" d="M21.545,2.854h-6.5c-0.689,0-1.25,0.561-1.25,1.25v4.375h9V4.104   C22.795,3.415,22.235,2.854,21.545,2.854z"/><path display="inline" d="M13.795,4.104c0-0.689,0.561-1.25,1.25-1.25h6.5c0.689,0,1.25,0.561,1.25,1.25v4.375h1.5V4.104   c0-1.517-1.233-2.75-2.75-2.75h-6.5c-1.517,0-2.75,1.233-2.75,2.75v4.375h1.5V4.104z"/><path display="inline" fill="#000000" d="M29.801,8.479h-5.506h-1.5h-9h-1.5H6.79L2.295,30.646h32L29.801,8.479z M19.183,25.053   v1.866H18.08v-1.813c-1.015-0.018-2.064-0.341-2.676-0.789l0.421-1.201c0.629,0.43,1.539,0.771,2.517,0.771   c1.241,0,2.082-0.736,2.082-1.758c0-0.986-0.683-1.596-1.976-2.134c-1.783-0.718-2.885-1.543-2.885-3.103   c0-1.489,1.032-2.619,2.641-2.888v-1.811h1.084v1.74c1.049,0.035,1.766,0.323,2.273,0.627l-0.438,1.184   c-0.366-0.215-1.084-0.61-2.203-0.61c-1.346,0-1.854,0.825-1.854,1.543c0,0.933,0.648,1.399,2.169,2.045   c1.8,0.753,2.71,1.686,2.71,3.282C21.944,23.42,20.983,24.747,19.183,25.053z"/><path display="inline" fill="#000000" d="M19.235,18.721c-1.521-0.645-2.169-1.112-2.169-2.045c0-0.718,0.508-1.543,1.854-1.543   c1.119,0,1.837,0.395,2.203,0.61l0.438-1.184c-0.507-0.304-1.224-0.592-2.273-0.627v-1.74h-1.084v1.811   c-1.609,0.27-2.641,1.399-2.641,2.888c0,1.56,1.102,2.385,2.885,3.103c1.294,0.538,1.976,1.148,1.976,2.134   c0,1.022-0.84,1.758-2.082,1.758c-0.978,0-1.888-0.341-2.517-0.771l-0.421,1.201c0.612,0.448,1.661,0.771,2.676,0.789v1.813h1.102   v-1.866c1.8-0.306,2.762-1.633,2.762-3.05C21.944,20.406,21.035,19.473,19.235,18.721z"/></g></svg>