<svg fill="#000000" xmlns="http://www.w3.org/2000/svg" xmlns:xlink="http://www.w3.org/1999/xlink" version="1.1" x="0px" y="0px" viewBox="0 0 100 100" enable-background="new 0 0 100 100" xml:space="preserve"><path d="M17.2,83.3h65.6c-8.4,8.3-20,13.4-32.8,13.4C37.2,96.8,25.6,91.7,17.2,83.3z M82.8,16.7C74.4,8.3,62.8,3.2,50,3.2  c-12.8,0-24.4,5.1-32.8,13.4H82.8z M75,45.2c-2.6,0-4.8,2.1-4.8,4.8c0,2.6,2.1,4.8,4.8,4.8c2.6,0,4.8-2.1,4.8-4.8  C79.7,47.4,77.6,45.2,75,45.2z M25,45.2c-2.6,0-4.8,2.1-4.8,4.8c0,2.6,2.1,4.8,4.8,4.8c2.6,0,4.8-2.1,4.8-4.8  C29.8,47.4,27.7,45.2,25,45.2z M95.2,29.9v40.3c0,4.3-3.5,7.8-7.8,7.8H12.6c-4.3,0-7.8-3.5-7.8-7.8V29.9c0-4.3,3.5-7.8,7.8-7.8h74.7  C91.7,22,95.2,25.5,95.2,29.9z M88.5,38.3c-0.6,0.2-1.3,0.2-2,0.2c-4.4,0-7.9-3.5-7.9-7.9c0-0.7,0.1-1.3,0.2-1.9H20.7  c0.1,0.5,0.1,1,0.1,1.5c0,4.4-3.6,7.9-7.9,7.9c-0.5,0-0.9,0-1.4-0.1V62c0.5-0.1,0.9-0.1,1.4-0.1c4.4,0,7.9,3.5,7.9,7.9  c0,0.5,0,1-0.1,1.5h58c0-0.3-0.1-0.6-0.1-1c0-4.4,3.6-7.9,7.9-7.9c0.7,0,1.3,0.1,2,0.2V38.3z M67.2,50c0,9.5-7.7,17.2-17.2,17.2  c-9.5,0-17.2-7.7-17.2-17.2c0-9.5,7.7-17.2,17.2-17.2C59.5,32.8,67.2,40.5,67.2,50z M48.4,45.5c0-0.6,0.2-1.1,0.5-1.5  c0.3-0.4,0.8-0.6,1.4-0.6c0.6,0,1.1,0.2,1.5,0.7c0.3,0.4,0.5,0.9,0.5,1.6c0,0.3,0.3,0.6,0.6,0.5l3.2,0c0.4,0,0.6-0.3,0.6-0.6  c-0.1-1.4-0.5-2.6-1.4-3.5c-0.8-1-2-1.6-3.4-1.9v-2.4c0-0.3-0.2-0.5-0.5-0.5h-2c-0.3,0-0.5,0.2-0.5,0.5v2.3  c-1.5,0.2-2.7,0.8-3.6,1.7c-1,1-1.5,2.2-1.5,3.7c0,1.7,0.5,2.9,1.4,3.8c1,0.9,2.5,1.7,4.6,2.6c0.9,0.4,1.5,0.8,1.8,1.1  c0.3,0.4,0.5,0.9,0.5,1.6c0,0.6-0.2,1.1-0.5,1.5c-0.3,0.4-0.8,0.6-1.5,0.6c-0.8,0-1.4-0.2-1.9-0.7c-0.4-0.4-0.6-1-0.7-1.8  c0-0.3-0.3-0.6-0.6-0.6l-3.2,0.1c-0.3,0-0.6,0.3-0.6,0.6c0.1,1.7,0.6,3,1.7,3.9c1.1,1,2.5,1.6,4.1,1.8v2.2c0,0.3,0.2,0.5,0.5,0.5h2  c0.3,0,0.5-0.2,0.5-0.5V60c1.3-0.2,2.4-0.8,3.2-1.6c1-0.9,1.5-2.2,1.5-3.8c0-1.6-0.5-2.9-1.5-3.8c-1-0.9-2.5-1.8-4.6-2.6  c-0.9-0.4-1.5-0.8-1.8-1.2C48.6,46.7,48.4,46.2,48.4,45.5z"/></svg>