<svg fill="#000000" xmlns="http://www.w3.org/2000/svg" xmlns:xlink="http://www.w3.org/1999/xlink" version="1.1" x="0px" y="0px" viewBox="0 0 30 30" xml:space="preserve"><g transform="translate(-30 -200)"><g xmlns="http://www.w3.org/2000/svg" xmlns:xlink="http://www.w3.org/1999/xlink"><path d="M45,208c0.237,0,0.447,0.027,0.668,0.043C45.448,208.016,45.227,208,45,208z"/><path d="M44.332,208.043C44.553,208.027,44.763,208,45,208C44.773,208,44.552,208.016,44.332,208.043z"/><path d="M53,213c0-1.069-0.203-1.959-0.52-2.727l-1.092,2.185l-0.942-0.626C50.419,211.814,47.651,210,45,210    c-2.666,0-5.418,1.814-5.445,1.832l-0.942,0.629l-1.093-2.188C37.203,211.041,37,211.931,37,213c0,0-4.769,5.674,1,10    c1.105,0.829,2.13,1.112,3.04,1.105c-0.013-0.034-0.028-0.071-0.04-0.105c0.157-0.158,1.363-1.393,1.817-3.45    c-2.18-0.925-3.73-3.187-3.804-5.856C42.494,213.498,45,211,45,211s2.505,2.498,5.986,3.693c-0.074,2.699-1.66,4.982-3.878,5.886    c0.459,2.041,1.654,3.265,1.81,3.421c-0.012,0.033-0.026,0.069-0.039,0.102c0.93,0.026,1.982-0.249,3.121-1.102    C57.769,218.674,53,213,53,213z"/><path d="M40.062,224.344l-0.112-0.305C38.116,224.142,34.47,224.53,33,226c-2,2-2,4-2,4h13.959    C42.214,230,40.273,224.922,40.062,224.344z"/><path d="M57,226c-1.49-1.49-5.224-1.869-7.03-1.967l-0.112,0.31c-0.211,0.579-2.145,5.657-4.898,5.657H45h14C59,230,59,228,57,226    z M54,229h-4v-1h4V229z"/><path d="M45,200c-5,0-10,3-10,3l4,8c0,0,3-2,6-2s6,2,6,2l4-8C55,203,50,200,45,200z M48,206h-2v2h-2v-2h-2v-2h2v-2h2v2h2V206z"/></g></g></svg>