<svg fill="#000000" xmlns="http://www.w3.org/2000/svg" data-name="Layer 1" viewBox="0 0 80 97.6" x="0px" y="0px"><defs><style>.cls-1{fill:none;}</style></defs><title>2 application certificate</title><path class="cls-1" d="M12,36.3h50.5a2.2,2.2,0,0,0,2.1-2.2,2.12,2.12,0,0,0-2-2.2H12a2.21,2.21,0,0,0,0,4.4Z" transform="translate(-0.05 0)"/><path class="cls-1" d="M42.9,45H12.3a2.2,2.2,0,1,0,0,4.4H42.9a2.2,2.2,0,0,0,0-4.4Z" transform="translate(-0.05 0)"/><path class="cls-1" d="M55.6,79.8a14.7,14.7,0,0,0-1.51-.48.58.58,0,0,0-.51.18l-3,6.54a.58.58,0,0,0,.68.79l2.24-.63,1,.86a.58.58,0,0,0,1-.38L56,80.45A.6.6,0,0,0,55.6,79.8Z" transform="translate(-0.05 0)"/><path class="cls-1" d="M62.27,78.8a.67.67,0,0,0-.92-.23h0c-.31.2-.69.63-1.05.72a.67.67,0,0,0-.5.8h0L61,85.73a.67.67,0,0,0,.49.5h.17a.67.67,0,0,0,.5-.22l.77-.85,2,.3a.68.68,0,0,0,.66-.3.67.67,0,0,0,0-.73Z" transform="translate(-0.05 0)"/><path class="cls-1" d="M67,18.9H12.3a2.2,2.2,0,0,0,0,4.4H67a2.2,2.2,0,0,0,0-4.4Z" transform="translate(-0.05 0)"/><path class="cls-1" d="M67.43,68.8,68,66.71a1.79,1.79,0,0,0-.65-2l-1.78-1.3-.68-2.09a1.78,1.78,0,0,0-1.7-1.24H61L59.3,58.8a1.79,1.79,0,0,0-2.11,0l-1.78,1.29h-2.2a1.79,1.79,0,0,0-1.7,1.24l-.68,2.1L49,64.7a1.79,1.79,0,0,0-.65,2L49,68.8l-.68,2.1a1.79,1.79,0,0,0,.65,2l1.78,1.3.68,2.09a1.79,1.79,0,0,0,1.7,1.24h2.2L57.2,78.8a1.79,1.79,0,0,0,2.11,0L61,77.53h2.2A1.79,1.79,0,0,0,65,76.29l.68-2.1,1.78-1.29a1.79,1.79,0,0,0,.65-2Z" transform="translate(-0.05 0)"/><path d="M69.41,0H11.2A11.18,11.18,0,0,0,0,11.16V86.4A11.36,11.36,0,0,0,11,97.6h57.8A11.18,11.18,0,0,0,80,86.44V10.91A10.8,10.8,0,0,0,69.41,0ZM42.9,49.4H12.3a2.2,2.2,0,1,1,0-4.4H42.9a2.2,2.2,0,0,1,0,4.4ZM10.06,34.31a2.21,2.21,0,0,1,2-2.41h50.6a2.12,2.12,0,0,1,2,2.2,2.2,2.2,0,0,1-2.1,2.2H12A2.21,2.21,0,0,1,10.06,34.31ZM55.5,86.68a.58.58,0,0,1-1,.38l-1-.86-2.24.63a.58.58,0,0,1-.68-.79l3-6.54a.58.58,0,0,1,.51-.18,14.7,14.7,0,0,1,1.51.48.6.6,0,0,1,.45.65Zm10.19-1.52a.68.68,0,0,1-.66.3l-2-.3-.77.85a.67.67,0,0,1-.5.22h-.17a.67.67,0,0,1-.49-.5l-1.26-5.62h0a.67.67,0,0,1,.5-.8c.36-.09.74-.52,1.05-.72h0a.67.67,0,0,1,.92.23l3.42,5.63A.67.67,0,0,1,65.69,85.16ZM67.51,72.9l-1.78,1.29L65,76.29a1.79,1.79,0,0,1-1.8,1.24H61L59.31,78.8a1.79,1.79,0,0,1-2.11,0l-1.82-1.27h-2.2a1.79,1.79,0,0,1-1.7-1.24L50.8,74.2,49,72.9a1.79,1.79,0,0,1-.65-2L49,68.8l-.65-2.1a1.79,1.79,0,0,1,.65-2l1.78-1.27.68-2.1a1.79,1.79,0,0,1,1.7-1.24h2.2l1.78-1.29a1.79,1.79,0,0,1,2.11,0L61,60.08h2.19a1.78,1.78,0,0,1,1.7,1.24l.68,2.09,1.78,1.3a1.79,1.79,0,0,1,.65,2l-.62,2.09.73,2.1A1.79,1.79,0,0,1,67.51,72.9ZM67,23.3H12.3a2.2,2.2,0,0,1,0-4.4H67a2.2,2.2,0,0,1,0,4.4Z" transform="translate(-0.05 0)"/></svg>