<svg fill="#000000" xmlns="http://www.w3.org/2000/svg" xmlns:xlink="http://www.w3.org/1999/xlink" version="1.1" x="0px" y="0px" viewBox="0 0 100 100" enable-background="new 0 0 100 100" xml:space="preserve"><g><path d="M50,7c23.7,0,43,19.3,43,43S73.7,93,50,93S7,73.7,7,50S26.3,7,50,7 M50,5C25.1,5,5,25.1,5,50s20.1,45,45,45s45-20.1,45-45   S74.9,5,50,5L50,5z"/></g><path d="M71.1,36.1l-5.4,5.4l-6.3-0.9l-0.9-6.3l5.4-5.4c-1.8-1.8-6.2-1.9-9.4,1.3c-3.1,3.1-3.9,7.6-2.5,11.4L28.9,64.8  c-1.7,1.7-1.7,4.6,0,6.3c1.7,1.7,4.6,1.7,6.3,0L58.3,48c3.8,1.4,8.4,0.6,11.4-2.5C73.1,42.2,72.9,37.9,71.1,36.1z M35.4,68.4  l-2.2,2.2l-3-0.8l-0.8-3l2.2-2.2l3,0.8L35.4,68.4z"/></svg>