<svg fill="#000000" xmlns="http://www.w3.org/2000/svg" xmlns:xlink="http://www.w3.org/1999/xlink" version="1.1" x="0px" y="0px" viewBox="0 0 24 24" style="enable-background:new 0 0 24 24;" xml:space="preserve"><g><path d="M12,6c-0.893,0-1.707,0.302-2.373,0.796l5.576,5.577C15.697,11.708,16,10.893,16,10C16,7.791,14.209,6,12,6z"/><path d="M11.045,13.873l-2.918-2.918C8.481,12.393,9.607,13.518,11.045,13.873z"/><path d="M4.539,17.029C6.158,19.423,8.898,21,12,21c1.758,0,3.391-0.52,4.777-1.395L12.172,15H8   C6.512,15,5.228,15.822,4.539,17.029z"/><path d="M12,24c2.592,0,4.984-0.83,6.945-2.226l-1.436-1.437C15.928,21.386,14.035,22,12,22C6.486,22,2,17.514,2,12   c0-2.036,0.615-3.929,1.663-5.51L2.227,5.054C0.83,7.015,0,9.408,0,12C0,18.627,5.373,24,12,24z"/><path d="M12,0C9.409,0,7.017,0.829,5.056,2.226l1.437,1.437C8.073,2.614,9.965,2,12,2c5.514,0,10,4.486,10,10   c0,2.035-0.614,3.927-1.662,5.508l1.438,1.437C23.171,16.983,24,14.591,24,12C24,5.373,18.627,0,12,0z"/><rect x="11.001" y="-3.001" transform="matrix(0.7071 -0.7071 0.7071 0.7071 -4.9699 12.0006)" width="2.001" height="30"/></g></svg>