<svg fill="#000000" xmlns="http://www.w3.org/2000/svg" xmlns:xlink="http://www.w3.org/1999/xlink" version="1.2" baseProfile="tiny" x="0px" y="0px" viewBox="0 0 128 128" overflow="scroll" xml:space="preserve"><g><path fill="none" stroke="#000000" stroke-width="4" stroke-linejoin="round" stroke-miterlimit="10" d="M92,30   C92,14.5,79.5,2,64,2S36,14.5,36,30c0,13.2,9.2,24.3,21.5,27.2L64,67l6.5-9.8C82.8,54.3,92,43.2,92,30z"/><g><path fill="none" stroke="#000000" stroke-width="4" stroke-linejoin="round" stroke-miterlimit="10" d="M29,83l11,5l3,5l-6,2    l-11-2c0,0-3.2,0-2-6C25,82,26.4,82.1,29,83z"/><line fill="none" stroke="#000000" stroke-width="4" stroke-linejoin="round" stroke-miterlimit="10" x1="42" y1="92" x2="59" y2="92"/><circle fill="none" stroke="#000000" stroke-width="4" stroke-linejoin="round" stroke-miterlimit="10" cx="64" cy="91" r="4"/><path fill="none" stroke="#000000" stroke-width="4" stroke-linejoin="round" stroke-miterlimit="10" d="M21,69c0,0,0-2-2-2    s-9,0-9,4s11,4,11,4V69z"/><path fill="none" stroke="#000000" stroke-width="4" stroke-linejoin="round" stroke-miterlimit="10" d="M17,115v8c0,0,0,3,3,3    s9,0,9,0s3,0,3-3s0-6,0-6"/><path fill="none" stroke="#000000" stroke-width="4" stroke-linejoin="round" stroke-miterlimit="10" d="M61,117"/><path fill="none" stroke="#000000" stroke-width="4" stroke-linejoin="round" stroke-miterlimit="10" d="M69,91"/><path fill="none" stroke="#000000" stroke-width="4" stroke-linejoin="round" stroke-miterlimit="10" d="M64,75"/><path fill="none" stroke="#000000" stroke-width="4" stroke-linejoin="round" stroke-miterlimit="10" d="M99,83l-11,5l-3,5l6,2    l11-2c0,0,3.2,0,2-6C103,82,101.6,82.1,99,83z"/><line fill="none" stroke="#000000" stroke-width="4" stroke-linejoin="round" stroke-miterlimit="10" x1="86" y1="92" x2="69" y2="92"/><line fill="none" stroke="#000000" stroke-width="4" stroke-linejoin="round" stroke-miterlimit="10" x1="103" y1="75" x2="25" y2="75"/><path fill="none" stroke="#000000" stroke-width="4" stroke-linejoin="round" stroke-miterlimit="10" d="M107,69c0,0,0-2,2-2    s9,0,9,4s-11,4-11,4V69z"/><path fill="none" stroke="#000000" stroke-width="4" stroke-linejoin="round" stroke-miterlimit="10" d="M111,115v8c0,0,0,3-3,3    s-9,0-9,0s-3,0-3-3s0-6,0-6"/><path fill="none" stroke="#000000" stroke-width="4" stroke-linejoin="round" stroke-miterlimit="10" d="M46.2,51.6    c-3.8,0.5-7.7,1.5-9.1,3.3C33.6,59.6,25,75,25,75s-6,0-6,5c0,0-4,1-4,4v25c0,0-0.1,8,7,8h84c7.1,0,7-8,7-8l0-25c0-3-4-4-4-4    c0-5-6-5-6-5s-8.4-15.3-11.9-19.9c-1.4-1.9-5.3-2.9-9.2-3.4"/><path fill="none" stroke="#000000" stroke-width="4" stroke-linejoin="round" stroke-miterlimit="10" d="M67,117"/><path fill="none" stroke="#000000" stroke-width="4" stroke-linejoin="round" stroke-miterlimit="10" d="M59,91"/><path fill="none" stroke="#000000" stroke-width="4" stroke-linejoin="round" stroke-miterlimit="10" d="M64,75"/><path fill="none" stroke="#000000" stroke-width="4" stroke-linejoin="round" stroke-miterlimit="10" d="M97,110c0,0,4,0,4-4    s-4-4-4-4H31c0,0-4,0-4,4s4,4,4,4H97z"/></g></g><circle fill="none" stroke="#000000" stroke-width="4" stroke-linecap="square" stroke-linejoin="round" stroke-miterlimit="10" cx="64" cy="29" r="6"/><line fill="none" stroke="#000000" stroke-width="4" stroke-linecap="square" stroke-linejoin="round" stroke-miterlimit="10" x1="51" y1="29" x2="47" y2="29"/><line fill="none" stroke="#000000" stroke-width="4" stroke-linecap="square" stroke-linejoin="round" stroke-miterlimit="10" x1="81" y1="29" x2="77" y2="29"/><polyline fill="none" stroke="#000000" stroke-width="4" stroke-linecap="square" stroke-linejoin="round" stroke-miterlimit="10" points="  60,36 60,45 63,48 65,48 68,45 68,36 "/><line fill="none" stroke="#000000" stroke-width="4" stroke-linecap="square" stroke-linejoin="round" stroke-miterlimit="10" x1="64" y1="12" x2="64" y2="16"/><line fill="none" stroke="#000000" stroke-width="4" stroke-linecap="square" stroke-linejoin="round" stroke-miterlimit="10" x1="76" y1="17" x2="73.2" y2="19.8"/><line fill="none" stroke="#000000" stroke-width="4" stroke-linecap="square" stroke-linejoin="round" stroke-miterlimit="10" x1="54.8" y1="19.8" x2="52" y2="17"/></svg>