<svg fill="#000000" xmlns:dc="http://purl.org/dc/elements/1.1/" xmlns:cc="http://creativecommons.org/ns#" xmlns:rdf="http://www.w3.org/1999/02/22-rdf-syntax-ns#" xmlns:svg="http://www.w3.org/2000/svg" xmlns="http://www.w3.org/2000/svg" xmlns:sodipodi="http://sodipodi.sourceforge.net/DTD/sodipodi-0.dtd" xmlns:inkscape="http://www.inkscape.org/namespaces/inkscape" version="1.1" x="0px" y="0px" viewBox="0 0 512 512" enable-background="new 0 0 512 512" xml:space="preserve"><path style="" d="M 72.240234 63.457031 C 71.938182 63.709417 71.638461 63.972477 71.337891 64.232422 C 71.347407 64.2692 71.357489 64.305151 71.367188 64.341797 C 71.653614 64.045914 71.934634 63.74978 72.240234 63.457031 z M 72.96875 68.404297 C 72.977211 68.419656 72.987582 68.433887 72.996094 68.449219 C 73.023516 68.433399 73.052657 68.420092 73.080078 68.404297 C 73.042642 68.404086 73.006189 68.404432 72.96875 68.404297 z M 225.90625 119.41992 L 225.90625 279.41992 L 289.90625 279.41992 L 289.90625 119.41992 L 225.90625 119.41992 z M 429.56055 435.875 C 429.55088 435.88293 429.54092 435.8905 429.53125 435.89844 C 429.34451 436.22445 429.19482 436.4943 429.03125 436.80078 C 429.21344 436.49165 429.38437 436.18361 429.56055 435.875 z M 429.94141 435.99609 C 429.37426 436.78623 428.81974 437.58399 428.30078 438.4043 C 428.29415 438.4247 428.28577 438.44437 428.2793 438.46484 C 428.60016 438.17855 428.91301 437.88359 429.23242 437.5957 C 429.46899 437.06234 429.67908 436.59062 429.94141 435.99609 z " clip-rule="evenodd" fill-rule="evenodd"/><path style="" d="m 72.239645,52.01569 c -0.05169,0.04319 -0.102662,0.0894 -0.154297,0.132813 0.0048,0.0031 0.0089,0.0067 0.01367,0.0098 0.0488,-0.04725 0.09139,-0.09541 0.140625,-0.142578 z M 244.45254,265.79108 c -0.0312,-0.006 0.0361,0.0115 0.25,0.0664 -0.10497,-0.0294 -0.0615,-0.022 -0.0996,-0.0352 -0.0484,-0.0101 -0.13649,-0.0287 -0.15039,-0.0312 z m 5.74023,2.07617 c -0.0387,-0.0573 -0.0178,0.0138 0.0234,0.11133 l 0.0527,0 c -0.0404,-0.0598 -0.0353,-0.0507 -0.0762,-0.11133 z m -24.28711,32.11133 0,64 64,0 0,-64 -64,0 z m 203.6543,124.45508 c -0.01,0.008 -0.0196,0.0155 -0.0293,0.0234 -0.18674,0.32601 -0.33643,0.59586 -0.5,0.90234 0.18219,-0.30913 0.35312,-0.61717 0.5293,-0.92578 z m 0.38086,0.12109 c -0.56715,0.79014 -1.12167,1.5879 -1.64063,2.40821 -0.007,0.0204 -0.015,0.0401 -0.0215,0.0605 0.32086,-0.28629 0.63372,-0.58125 0.95313,-0.86914 0.23657,-0.53336 0.44665,-1.00508 0.70898,-1.59961 z" clip-rule="evenodd" fill-rule="evenodd"/></svg>