<svg fill="#000000" xmlns="http://www.w3.org/2000/svg" xmlns:xlink="http://www.w3.org/1999/xlink" version="1.1" x="0px" y="0px" viewBox="0 0 48 48" enable-background="new 0 0 48 48" xml:space="preserve"><g><path d="M12.3,35.8c-6,0-11,4.2-12.3,9.8C-0.2,46.8,0.7,48,2,48h20.8c1.3,0,2.2-1.2,1.9-2.4C23.4,40,18.3,35.8,12.3,35.8z"/><path d="M12.3,20.3c-3.2,0-5.8,2.6-5.8,5.8s2.6,7.8,5.8,7.8s5.8-4.6,5.8-7.8S15.5,20.3,12.3,20.3z"/><path d="M48,25.3c-1.3-5.6-6.3-9.8-12.3-9.8s-11,4.2-12.3,9.8c-0.3,1.2,0.7,2.4,1.9,2.4H46C47.3,27.7,48.2,26.5,48,25.3z"/><path d="M35.7,13.6c3.2,0,5.8-4.6,5.8-7.8c0-3.2-2.6-5.8-5.8-5.8c-3.2,0-5.8,2.6-5.8,5.8C29.9,9,32.5,13.6,35.7,13.6z"/><path d="M6.5,17.3c0.8,0,1.5-0.7,1.5-1.5c0-4.6,3-8.4,7.1-9.8v1.6c0,0.9,1,1.5,1.8,0.9l4.4-3.2c0.6-0.5,0.6-1.4,0-1.8l-4.4-3.2   c-0.7-0.5-1.8,0-1.8,0.9v1.7C9.3,4.3,5,9.5,5,15.8C5,16.6,5.7,17.3,6.5,17.3z"/><path d="M41.5,30.3c-0.8,0-1.5,0.7-1.5,1.5c0,4.6-3,8.4-7.1,9.8v-1.1c0-0.9-1-1.5-1.8-0.9l-4.4,3.2c-0.6,0.5-0.6,1.4,0,1.8l4.4,3.2   c0.7,0.5,1.8,0,1.8-0.9v-2.1C38.7,43.3,43,38,43,31.8C43,31,42.3,30.3,41.5,30.3z"/></g></svg>