<svg fill="#000000" xmlns="http://www.w3.org/2000/svg" xmlns:xlink="http://www.w3.org/1999/xlink" version="1.1" x="0px" y="0px" viewBox="0 0 100 100" enable-background="new 0 0 100 100" xml:space="preserve"><path fill-rule="evenodd" clip-rule="evenodd" d="M95.004,41.707v-4.245c0-0.359-0.294-0.654-0.653-0.654h-8.047  c-0.049,0-0.1,0.006-0.148,0.019l-2.432-11.858c-0.969-4.719-5.018-8.022-9.835-8.022h-9.742V13c0-3.417-2.795-6.212-6.211-6.212  H42.064c-3.417,0-6.213,2.796-6.213,6.212v3.946h-9.698c-4.817,0-8.866,3.303-9.834,8.022l-2.435,11.869  c-0.061-0.019-0.124-0.029-0.19-0.029H5.648c-0.358,0-0.652,0.295-0.652,0.654v4.245c0,0.36,0.294,0.653,0.652,0.653h7.104  l-0.021,0.099c-4.323,1.867-7.362,6.174-7.362,11.17v25.67h5.778v10.613c0,1.814,2.041,3.301,4.535,3.301h6.351  c2.494,0,4.535-1.486,4.535-3.301V79.299H72.18v10.613c0,1.814,2.042,3.301,4.535,3.301h6.35c2.496,0,4.537-1.486,4.537-3.301  V79.299h7.298v-25.67c0-5.086-3.15-9.458-7.598-11.269h7.049C94.71,42.36,95.004,42.066,95.004,41.707z M40.94,9.312h3.624v3.624  h3.624V9.313h3.624v3.624h3.622V9.313h3.624v3.624h-3.623v3.623h-3.623v-3.624h-3.624v3.623h-3.624v-3.624H40.94V9.312z   M21.609,27.745c0.815-3.756,4.229-6.385,8.289-6.385h40.244c4.061,0,7.475,2.629,8.292,6.385l2.981,13.725H18.627L21.609,27.745z   M29.289,64.869c0,0.57-0.464,1.033-1.031,1.033H10.361c-0.567,0-1.031-0.463-1.031-1.033v-7.502c0-0.568,0.464-1.033,1.031-1.033  h17.896c0.567,0,1.031,0.465,1.031,1.033V64.869z M67.454,66.209H34.023v-1.852h33.431V66.209z M67.454,62.029H34.023v-1.852h33.431  V62.029z M67.454,57.961H34.023v-1.852h33.431V57.961z M89.896,56.334c0.567,0,1.032,0.465,1.032,1.033v7.502  c0,0.57-0.465,1.033-1.032,1.033H71.999c-0.568,0-1.033-0.463-1.033-1.033v-7.502c0-0.568,0.465-1.033,1.033-1.033H89.896z"/></svg>